<?xml version="1.0" encoding="utf-8"?>
<!-- Created by UniConvertor 2.0rc5 (https://sk1project.net/) -->
<svg xmlns="http://www.w3.org/2000/svg" height="512.0px" width="512.0px" version="1.1" xmlns:xlink="http://www.w3.org/1999/xlink" id="cca5a4ce-b07b-11ec-9075-a8a1598cb569">

<g>
	<path style="fill:#ffffff;" d="M 0.0,0.0 L 0.0,512.0 512.0,512.0 512.0,0.0 0.0,0.0 Z" />
	<path style="fill:#ffff;" d="M 253.667,5.3333 C 253.222,5.7779 254.278,5.7221 254.333,5.6667 254.778,5.2224 253.722,5.2777 253.667,5.3333 Z" />
	<path style="fill:#ffff;" d="M 255.0,5.0 L 255.0,6.0 258.0,6.0 C 256.752,5.3152 256.452,5.2512 255.0,5.0 Z" />
	<path style="fill:#ffff;" d="M 258.667,5.3333 C 258.222,5.7777 259.278,5.7222 259.333,5.6667 259.778,5.2223 258.722,5.2778 258.667,5.3333 Z" />
	<path style="fill:#ffff;" d="M 250.0,6.0 L 251.0,7.0 250.0,6.0 Z" />
	<path style="fill:#ffff;" d="M 251.0,6.0 L 252.0,7.0 251.0,6.0 Z" />
	<path style="fill:#ffff;" d="M 252.0,6.5293 C 243.505,8.4866 235.849,15.5628 229.0,20.6288 L 190.0,48.8488 C 148.5,79.1091 106.818,109.182 65.0,139.0 44.7493,153.439 18.969,166.682 9.4637,191.0 2.7428,208.194 6.0,229.875 6.0,248.0 L 6.0,359.0 6.0,464.0 C 6.0,476.845 2.4409,494.694 15.0147,502.867 25.6994,509.811 45.6985,506.0 58.0,506.0 L 164.0,506.0 C 178.421,506.0 199.558,510.321 206.786,494.0 210.967,484.561 209.0,472.076 209.0,462.0 L 209.0,404.0 C 209.0,393.55 207.71,382.174 210.49,372.0 216.22,351.032 236.61,337.07 258.0,338.039 277.313,338.915 294.131,353.748 299.254,372.0 302.217,382.559 301.0,394.141 301.0,405.0 L 301.0,462.0 C 301.0,472.304 298.406,486.823 304.005,495.999 312.995,510.731 335.369,506.0 350.0,506.0 L 445.0,506.0 C 459.412,506.0 476.951,508.718 491.0,505.471 509.579,501.176 507.0,481.536 507.0,467.0 L 507.0,350.0 507.0,243.0 C 507.0,225.627 509.968,205.269 502.688,189.0 493.374,168.188 473.6,157.647 456.0,144.629 421.645,119.218 386.761,94.4313 352.0,69.5787 L 284.0,20.5787 C 274.745,13.9626 264.424,3.667 252.0,6.5293 Z" />
	<path style="fill:#464646;" d="M 261.0,6.0 L 262.0,7.0 261.0,6.0 Z" />
	<path style="fill:#898989;" d="M 262.0,6.0 L 263.0,7.0 262.0,6.0 Z" />
	<path style="fill:#b8b8b8;" d="M 247.0,7.0 L 248.0,8.0 247.0,7.0 Z" />
	<path style="fill:#464646;" d="M 248.0,7.0 L 249.0,8.0 248.0,7.0 M 264.0,7.0 L 265.0,8.0 264.0,7.0 Z" />
	<path style="fill:#a7a7a7;" d="M 265.0,7.0 L 266.0,8.0 265.0,7.0 Z" />
	<path style="fill:#464646;" d="M 246.0,8.0 L 247.0,9.0 246.0,8.0 Z" />
	<path style="fill:#303030;" d="M 266.0,8.0 L 267.0,9.0 266.0,8.0 Z" />
	<path style="fill:#cacaca;" d="M 267.0,8.0 L 268.0,9.0 267.0,8.0 Z" />
	<path style="fill:#7a7a7a;" d="M 244.0,9.0 L 245.0,10.0 244.0,9.0 Z" />
	<path style="fill:#6b6b6b;" d="M 268.0,9.0 L 269.0,10.0 268.0,9.0 Z" />
	<path style="fill:#303030;" d="M 243.0,10.0 L 244.0,11.0 243.0,10.0 Z" />
	<path style="fill:#cacaca;" d="M 270.0,10.0 L 271.0,11.0 270.0,10.0 Z" />
	<path style="fill:#a7a7a7;" d="M 241.0,11.0 L 242.0,12.0 241.0,11.0 Z" />
	<path style="fill:#7a7a7a;" d="M 271.0,11.0 L 272.0,12.0 271.0,11.0 Z" />
	<path style="fill:#555555;" d="M 240.0,12.0 L 241.0,13.0 240.0,12.0 Z" />
	<path style="fill:#464646;" d="M 272.0,12.0 L 273.0,13.0 272.0,12.0 Z" />
	<path style="fill:#b8b8b8;" d="M 238.0,13.0 L 239.0,14.0 238.0,13.0 M 274.0,13.0 L 275.0,14.0 274.0,13.0 Z" />
	<path style="fill:#7a7a7a;" d="M 237.0,14.0 L 238.0,15.0 237.0,14.0 Z" />
	<path style="fill:#6b6b6b;" d="M 275.0,14.0 L 276.0,15.0 275.0,14.0 Z" />
	<path style="fill:#3b3b3b;" d="M 236.0,15.0 L 237.0,16.0 236.0,15.0 Z" />
	<path style="fill:#303030;" d="M 276.0,15.0 L 277.0,16.0 276.0,15.0 Z" />
	<path style="fill:#d2d2d2;" d="M 277.0,15.0 L 278.0,16.0 277.0,15.0 Z" />
	<path style="fill:#a7a7a7;" d="M 234.0,16.0 L 235.0,17.0 234.0,16.0 Z" />
	<path style="fill:#969696;" d="M 278.0,16.0 L 279.0,17.0 278.0,16.0 Z" />
	<path style="fill:#6b6b6b;" d="M 233.0,17.0 L 234.0,18.0 233.0,17.0 Z" />
	<path style="fill:#555555;" d="M 279.0,17.0 L 280.0,18.0 279.0,17.0 Z" />
	<path style="fill:#cacaca;" d="M 231.0,18.0 L 232.0,19.0 231.0,18.0 M 281.0,18.0 L 282.0,19.0 281.0,18.0 Z" />
	<path style="fill:#969696;" d="M 230.0,19.0 L 231.0,20.0 230.0,19.0 Z" />
	<path style="fill:#6b6b6b;" d="M 282.0,19.0 L 283.0,20.0 282.0,19.0 Z" />
	<path style="fill:#464646;" d="M 229.0,20.0 L 230.0,21.0 229.0,20.0 Z" />
	<path style="fill:#303030;" d="M 283.0,20.0 L 284.0,21.0 283.0,20.0 Z" />
	<path style="fill:#b8b8b8;" d="M 227.0,21.0 L 228.0,22.0 227.0,21.0 Z" />
	<path style="fill:#a7a7a7;" d="M 285.0,21.0 L 286.0,22.0 285.0,21.0 Z" />
	<path style="fill:#6b6b6b;" d="M 226.0,22.0 L 227.0,23.0 226.0,22.0 Z" />
	<path style="fill:#555555;" d="M 286.0,22.0 L 287.0,23.0 286.0,22.0 Z" />
	<path style="fill:#303030;" d="M 225.0,23.0 L 226.0,24.0 225.0,23.0 Z" />
	<path style="fill:#cacaca;" d="M 288.0,23.0 L 289.0,24.0 288.0,23.0 Z" />
	<path style="fill:#a7a7a7;" d="M 223.0,24.0 L 224.0,25.0 223.0,24.0 Z" />
	<path style="fill:#7a7a7a;" d="M 289.0,24.0 L 290.0,25.0 289.0,24.0 Z" />
	<path style="fill:#555555;" d="M 222.0,25.0 L 223.0,26.0 222.0,25.0 Z" />
	<path style="fill:#464646;" d="M 290.0,25.0 L 291.0,26.0 290.0,25.0 Z" />
	<path style="fill:#b8b8b8;" d="M 220.0,26.0 L 221.0,27.0 220.0,26.0 M 292.0,26.0 L 293.0,27.0 292.0,26.0 Z" />
	<path style="fill:#7a7a7a;" d="M 219.0,27.0 L 220.0,28.0 219.0,27.0 Z" />
	<path style="fill:#555555;" d="M 293.0,27.0 L 294.0,28.0 293.0,27.0 Z" />
	<path style="fill:#3b3b3b;" d="M 218.0,28.0 L 219.0,29.0 218.0,28.0 Z" />
	<path style="fill:#d2d2d2;" d="M 295.0,28.0 L 296.0,29.0 295.0,28.0 Z" />
	<path style="fill:#a7a7a7;" d="M 216.0,29.0 L 217.0,30.0 216.0,29.0 Z" />
	<path style="fill:#969696;" d="M 296.0,29.0 L 297.0,30.0 296.0,29.0 Z" />
	<path style="fill:#555555;" d="M 215.0,30.0 L 216.0,31.0 215.0,30.0 Z" />
	<path style="fill:#464646;" d="M 297.0,30.0 L 298.0,31.0 297.0,30.0 Z" />
	<path style="fill:#cacaca;" d="M 213.0,31.0 L 214.0,32.0 213.0,31.0 Z" />
	<path style="fill:#b8b8b8;" d="M 299.0,31.0 L 300.0,32.0 299.0,31.0 Z" />
	<path style="fill:#969696;" d="M 212.0,32.0 L 213.0,33.0 212.0,32.0 Z" />
	<path style="fill:#6b6b6b;" d="M 300.0,32.0 L 301.0,33.0 300.0,32.0 Z" />
	<path style="fill:#3b3b3b;" d="M 211.0,33.0 L 212.0,34.0 211.0,33.0 Z" />
	<path style="fill:#303030;" d="M 301.0,33.0 L 302.0,34.0 301.0,33.0 Z" />
	<path style="fill:#a7a7a7;" d="M 209.0,34.0 L 210.0,35.0 209.0,34.0 Z" />
	<path style="fill:#969696;" d="M 303.0,34.0 L 304.0,35.0 303.0,34.0 Z" />
	<path style="fill:#6b6b6b;" d="M 208.0,35.0 L 209.0,36.0 208.0,35.0 Z" />
	<path style="fill:#555555;" d="M 304.0,35.0 L 305.0,36.0 304.0,35.0 Z" />
	<path style="fill:#d2d2d2;" d="M 206.0,36.0 L 207.0,37.0 206.0,36.0 Z" />
	<path style="fill:#303030;" d="M 207.0,36.0 L 208.0,37.0 207.0,36.0 Z" />
	<path style="fill:#cacaca;" d="M 306.0,36.0 L 307.0,37.0 306.0,36.0 Z" />
	<path style="fill:#969696;" d="M 205.0,37.0 L 206.0,38.0 205.0,37.0 Z" />
	<path style="fill:#7a7a7a;" d="M 307.0,37.0 L 308.0,38.0 307.0,37.0 Z" />
	<path style="fill:#464646;" d="M 204.0,38.0 L 205.0,39.0 204.0,38.0 Z" />
	<path style="fill:#3b3b3b;" d="M 308.0,38.0 L 309.0,39.0 308.0,38.0 Z" />
	<path style="fill:#b8b8b8;" d="M 202.0,39.0 L 203.0,40.0 202.0,39.0 Z" />
	<path style="fill:#a7a7a7;" d="M 310.0,39.0 L 311.0,40.0 310.0,39.0 Z" />
	<path style="fill:#7a7a7a;" d="M 201.0,40.0 L 202.0,41.0 201.0,40.0 Z" />
	<path style="fill:#555555;" d="M 311.0,40.0 L 312.0,41.0 311.0,40.0 Z" />
	<path style="fill:#303030;" d="M 200.0,41.0 L 201.0,42.0 200.0,41.0 Z" />
	<path style="fill:#d2d2d2;" d="M 313.0,41.0 L 314.0,42.0 313.0,41.0 Z" />
	<path style="fill:#a7a7a7;" d="M 198.0,42.0 L 199.0,43.0 198.0,42.0 Z" />
	<path style="fill:#898989;" d="M 314.0,42.0 L 315.0,43.0 314.0,42.0 Z" />
	<path style="fill:#555555;" d="M 197.0,43.0 L 198.0,44.0 197.0,43.0 Z" />
	<path style="fill:#464646;" d="M 315.0,43.0 L 316.0,44.0 315.0,43.0 Z" />
	<path style="fill:#cacaca;" d="M 195.0,44.0 L 196.0,45.0 195.0,44.0 Z" />
	<path style="fill:#b8b8b8;" d="M 317.0,44.0 L 318.0,45.0 317.0,44.0 Z" />
	<path style="fill:#898989;" d="M 194.0,45.0 L 195.0,46.0 194.0,45.0 Z" />
	<path style="fill:#6b6b6b;" d="M 318.0,45.0 L 319.0,46.0 318.0,45.0 Z" />
	<path style="fill:#3b3b3b;" d="M 193.0,46.0 L 194.0,47.0 193.0,46.0 Z" />
	<path style="fill:#303030;" d="M 319.0,46.0 L 320.0,47.0 319.0,46.0 Z" />
	<path style="fill:#a7a7a7;" d="M 191.0,47.0 L 192.0,48.0 191.0,47.0 Z" />
	<path style="fill:#969696;" d="M 321.0,47.0 L 322.0,48.0 321.0,47.0 Z" />
	<path style="fill:#6b6b6b;" d="M 190.0,48.0 L 191.0,49.0 190.0,48.0 Z" />
	<path style="fill:#555555;" d="M 322.0,48.0 L 323.0,49.0 322.0,48.0 Z" />
	<path style="fill:#d2d2d2;" d="M 188.0,49.0 L 189.0,50.0 188.0,49.0 Z" />
	<path style="fill:#303030;" d="M 189.0,49.0 L 190.0,50.0 189.0,49.0 Z" />
	<path style="fill:#cacaca;" d="M 324.0,49.0 L 325.0,50.0 324.0,49.0 Z" />
	<path style="fill:#969696;" d="M 187.0,50.0 L 188.0,51.0 187.0,50.0 Z" />
	<path style="fill:#7a7a7a;" d="M 325.0,50.0 L 326.0,51.0 325.0,50.0 Z" />
	<path style="fill:#464646;" d="M 186.0,51.0 L 187.0,52.0 186.0,51.0 Z" />
	<path style="fill:#3b3b3b;" d="M 326.0,51.0 L 327.0,52.0 326.0,51.0 Z" />
	<path style="fill:#b8b8b8;" d="M 184.0,52.0 L 185.0,53.0 184.0,52.0 Z" />
	<path style="fill:#555555;" d="M 255.667,52.3333 C 255.222,52.7776 256.278,52.7223 256.333,52.6667 256.778,52.2221 255.722,52.2778 255.667,52.3333 Z" />
	<path style="fill:#a7a7a7;" d="M 328.0,52.0 L 329.0,53.0 328.0,52.0 Z" />
	<path style="fill:#7a7a7a;" d="M 183.0,53.0 L 184.0,54.0 183.0,53.0 Z" />
	<path style="fill:#a7a7a7;" d="M 254.0,53.0 L 255.0,54.0 254.0,53.0 Z" />
	<path style="fill:#ffffff;" d="M 47.0,464.0 L 168.0,464.0 C 168.0,424.249 159.145,373.081 181.698,338.0 219.017,279.951 306.4,284.52 335.691,348.0 351.485,382.231 344.0,428.182 344.0,465.0 L 465.0,465.0 465.0,280.0 465.0,229.0 C 465.0,221.431 466.47,211.979 462.9,205.015 459.646,198.667 452.613,194.711 447.0,190.709 L 416.0,168.29 305.0,87.7099 271.0,63.1157 C 267.142,60.2769 261.061,53.8596 256.0,53.8596 250.939,53.8596 244.858,60.2769 241.0,63.1157 L 207.0,87.5787 94.0,168.86 64.0,190.421 C 58.6297,194.26 52.0211,197.828 49.0502,204.004 45.5123,211.358 47.0,221.076 47.0,229.0 L 47.0,280.0 47.0,464.0 Z" />
	<path style="fill:#a7a7a7;" d="M 257.0,53.0 L 258.0,54.0 257.0,53.0 Z" />
	<path style="fill:#555555;" d="M 329.0,53.0 L 330.0,54.0 329.0,53.0 Z" />
	<path style="fill:#303030;" d="M 182.0,54.0 L 183.0,55.0 182.0,54.0 Z" />
	<path style="fill:#3b3b3b;" d="M 252.0,54.0 L 253.0,55.0 252.0,54.0 M 259.0,54.0 L 260.0,55.0 259.0,54.0 Z" />
	<path style="fill:#cacaca;" d="M 331.0,54.0 L 332.0,55.0 331.0,54.0 Z" />
	<path style="fill:#a7a7a7;" d="M 180.0,55.0 L 181.0,56.0 180.0,55.0 Z" />
	<path style="fill:#7a7a7a;" d="M 251.0,55.0 L 252.0,56.0 251.0,55.0 M 260.0,55.0 L 261.0,56.0 260.0,55.0 M 332.0,55.0 L 333.0,56.0 332.0,55.0 Z" />
	<path style="fill:#555555;" d="M 179.0,56.0 L 180.0,57.0 179.0,56.0 Z" />
	<path style="fill:#cacaca;" d="M 250.0,56.0 L 251.0,57.0 250.0,56.0 Z" />
	<path style="fill:#b8b8b8;" d="M 261.0,56.0 L 262.0,57.0 261.0,56.0 Z" />
	<path style="fill:#464646;" d="M 333.0,56.0 L 334.0,57.0 333.0,56.0 Z" />
	<path style="fill:#cacaca;" d="M 177.0,57.0 L 178.0,58.0 177.0,57.0 Z" />
	<path style="fill:#555555;" d="M 248.0,57.0 L 249.0,58.0 248.0,57.0 Z" />
	<path style="fill:#464646;" d="M 263.0,57.0 L 264.0,58.0 263.0,57.0 Z" />
	<path style="fill:#b8b8b8;" d="M 335.0,57.0 L 336.0,58.0 335.0,57.0 Z" />
	<path style="fill:#7a7a7a;" d="M 176.0,58.0 L 177.0,59.0 176.0,58.0 Z" />
	<path style="fill:#969696;" d="M 247.0,58.0 L 248.0,59.0 247.0,58.0 Z" />
	<path style="fill:#a7a7a7;" d="M 264.0,58.0 L 265.0,59.0 264.0,58.0 Z" />
	<path style="fill:#6b6b6b;" d="M 336.0,58.0 L 337.0,59.0 336.0,58.0 Z" />
	<path style="fill:#3b3b3b;" d="M 175.0,59.0 L 176.0,60.0 175.0,59.0 Z" />
	<path style="fill:#303030;" d="M 245.0,59.0 L 246.0,60.0 245.0,59.0 M 266.0,59.0 L 267.0,60.0 266.0,59.0 M 337.0,59.0 L 338.0,60.0 337.0,59.0 Z" />
	<path style="fill:#d2d2d2;" d="M 338.0,59.0 L 339.0,60.0 338.0,59.0 Z" />
	<path style="fill:#a7a7a7;" d="M 173.0,60.0 L 174.0,61.0 173.0,60.0 Z" />
	<path style="fill:#6b6b6b;" d="M 244.0,60.0 L 245.0,61.0 244.0,60.0 M 267.0,60.0 L 268.0,61.0 267.0,60.0 Z" />
	<path style="fill:#969696;" d="M 339.0,60.0 L 340.0,61.0 339.0,60.0 Z" />
	<path style="fill:#6b6b6b;" d="M 172.0,61.0 L 173.0,62.0 172.0,61.0 Z" />
	<path style="fill:#b8b8b8;" d="M 243.0,61.0 L 244.0,62.0 243.0,61.0 Z" />
	<path style="fill:#a7a7a7;" d="M 268.0,61.0 L 269.0,62.0 268.0,61.0 Z" />
	<path style="fill:#555555;" d="M 340.0,61.0 L 341.0,62.0 340.0,61.0 Z" />
	<path style="fill:#cacaca;" d="M 170.0,62.0 L 171.0,63.0 170.0,62.0 Z" />
	<path style="fill:#464646;" d="M 241.0,62.0 L 242.0,63.0 241.0,62.0 Z" />
	<path style="fill:#3b3b3b;" d="M 270.0,62.0 L 271.0,63.0 270.0,62.0 Z" />
	<path style="fill:#cacaca;" d="M 342.0,62.0 L 343.0,63.0 342.0,62.0 Z" />
	<path style="fill:#969696;" d="M 169.0,63.0 L 170.0,64.0 169.0,63.0 M 240.0,63.0 L 241.0,64.0 240.0,63.0 Z" />
	<path style="fill:#898989;" d="M 271.0,63.0 L 272.0,64.0 271.0,63.0 Z" />
	<path style="fill:#6b6b6b;" d="M 343.0,63.0 L 344.0,64.0 343.0,63.0 Z" />
	<path style="fill:#464646;" d="M 168.0,64.0 L 169.0,65.0 168.0,64.0 Z" />
	<path style="fill:#d2d2d2;" d="M 239.0,64.0 L 240.0,65.0 239.0,64.0 Z" />
	<path style="fill:#cacaca;" d="M 272.0,64.0 L 273.0,65.0 272.0,64.0 Z" />
	<path style="fill:#3b3b3b;" d="M 344.0,64.0 L 345.0,65.0 344.0,64.0 Z" />
	<path style="fill:#b8b8b8;" d="M 166.0,65.0 L 167.0,66.0 166.0,65.0 Z" />
	<path style="fill:#555555;" d="M 237.0,65.0 L 238.0,66.0 237.0,65.0 M 274.0,65.0 L 275.0,66.0 274.0,65.0 Z" />
	<path style="fill:#a7a7a7;" d="M 346.0,65.0 L 347.0,66.0 346.0,65.0 Z" />
	<path style="fill:#6b6b6b;" d="M 165.0,66.0 L 166.0,67.0 165.0,66.0 Z" />
	<path style="fill:#b8b8b8;" d="M 236.0,66.0 L 237.0,67.0 236.0,66.0 Z" />
	<path style="fill:#a7a7a7;" d="M 275.0,66.0 L 276.0,67.0 275.0,66.0 Z" />
	<path style="fill:#555555;" d="M 347.0,66.0 L 348.0,67.0 347.0,66.0 Z" />
	<path style="fill:#303030;" d="M 164.0,67.0 L 165.0,68.0 164.0,67.0 Z" />
	<path style="fill:#464646;" d="M 234.0,67.0 L 235.0,68.0 234.0,67.0 Z" />
	<path style="fill:#303030;" d="M 277.0,67.0 L 278.0,68.0 277.0,67.0 Z" />
	<path style="fill:#cacaca;" d="M 349.0,67.0 L 350.0,68.0 349.0,67.0 Z" />
	<path style="fill:#a7a7a7;" d="M 162.0,68.0 L 163.0,69.0 162.0,68.0 Z" />
	<path style="fill:#7a7a7a;" d="M 233.0,68.0 L 234.0,69.0 233.0,68.0 Z" />
	<path style="fill:#6b6b6b;" d="M 278.0,68.0 L 279.0,69.0 278.0,68.0 Z" />
	<path style="fill:#7a7a7a;" d="M 350.0,68.0 L 351.0,69.0 350.0,68.0 Z" />
	<path style="fill:#555555;" d="M 161.0,69.0 L 162.0,70.0 161.0,69.0 Z" />
	<path style="fill:#cacaca;" d="M 232.0,69.0 L 233.0,70.0 232.0,69.0 Z" />
	<path style="fill:#b8b8b8;" d="M 279.0,69.0 L 280.0,70.0 279.0,69.0 Z" />
	<path style="fill:#464646;" d="M 351.0,69.0 L 352.0,70.0 351.0,69.0 Z" />
	<path style="fill:#b8b8b8;" d="M 159.0,70.0 L 160.0,71.0 159.0,70.0 Z" />
	<path style="fill:#555555;" d="M 230.0,70.0 L 231.0,71.0 230.0,70.0 Z" />
	<path style="fill:#464646;" d="M 281.0,70.0 L 282.0,71.0 281.0,70.0 Z" />
	<path style="fill:#b8b8b8;" d="M 353.0,70.0 L 354.0,71.0 353.0,70.0 Z" />
	<path style="fill:#7a7a7a;" d="M 158.0,71.0 L 159.0,72.0 158.0,71.0 Z" />
	<path style="fill:#a7a7a7;" d="M 229.0,71.0 L 230.0,72.0 229.0,71.0 Z" />
	<path style="fill:#969696;" d="M 282.0,71.0 L 283.0,72.0 282.0,71.0 Z" />
	<path style="fill:#555555;" d="M 354.0,71.0 L 355.0,72.0 354.0,71.0 Z" />
	<path style="fill:#3b3b3b;" d="M 157.0,72.0 L 158.0,73.0 157.0,72.0 M 227.0,72.0 L 228.0,73.0 227.0,72.0 Z" />
	<path style="fill:#cacaca;" d="M 283.0,72.0 L 284.0,73.0 283.0,72.0 Z" />
	<path style="fill:#d2d2d2;" d="M 356.0,72.0 L 357.0,73.0 356.0,72.0 Z" />
	<path style="fill:#a7a7a7;" d="M 155.0,73.0 L 156.0,74.0 155.0,73.0 Z" />
	<path style="fill:#7a7a7a;" d="M 226.0,73.0 L 227.0,74.0 226.0,73.0 Z" />
	<path style="fill:#555555;" d="M 285.0,73.0 L 286.0,74.0 285.0,73.0 Z" />
	<path style="fill:#969696;" d="M 357.0,73.0 L 358.0,74.0 357.0,73.0 Z" />
	<path style="fill:#555555;" d="M 154.0,74.0 L 155.0,75.0 154.0,74.0 Z" />
	<path style="fill:#cacaca;" d="M 225.0,74.0 L 226.0,75.0 225.0,74.0 Z" />
	<path style="fill:#a7a7a7;" d="M 286.0,74.0 L 287.0,75.0 286.0,74.0 Z" />
	<path style="fill:#555555;" d="M 358.0,74.0 L 359.0,75.0 358.0,74.0 Z" />
	<path style="fill:#cacaca;" d="M 152.0,75.0 L 153.0,76.0 152.0,75.0 Z" />
	<path style="fill:#555555;" d="M 223.0,75.0 L 224.0,76.0 223.0,75.0 Z" />
	<path style="fill:#3b3b3b;" d="M 288.0,75.0 L 289.0,76.0 288.0,75.0 Z" />
	<path style="fill:#b8b8b8;" d="M 360.0,75.0 L 361.0,76.0 360.0,75.0 Z" />
	<path style="fill:#969696;" d="M 151.0,76.0 L 152.0,77.0 151.0,76.0 M 222.0,76.0 L 223.0,77.0 222.0,76.0 Z" />
	<path style="fill:#7a7a7a;" d="M 289.0,76.0 L 290.0,77.0 289.0,76.0 Z" />
	<path style="fill:#6b6b6b;" d="M 361.0,76.0 L 362.0,77.0 361.0,76.0 Z" />
	<path style="fill:#464646;" d="M 150.0,77.0 L 151.0,78.0 150.0,77.0 Z" />
	<path style="fill:#303030;" d="M 220.0,77.0 L 221.0,78.0 220.0,77.0 Z" />
	<path style="fill:#b8b8b8;" d="M 290.0,77.0 L 291.0,78.0 290.0,77.0 Z" />
	<path style="fill:#303030;" d="M 362.0,77.0 L 363.0,78.0 362.0,77.0 Z" />
	<path style="fill:#a7a7a7;" d="M 148.0,78.0 L 149.0,79.0 148.0,78.0 Z" />
	<path style="fill:#6b6b6b;" d="M 219.0,78.0 L 220.0,79.0 219.0,78.0 Z" />
	<path style="fill:#464646;" d="M 292.0,78.0 L 293.0,79.0 292.0,78.0 Z" />
	<path style="fill:#969696;" d="M 364.0,78.0 L 365.0,79.0 364.0,78.0 Z" />
	<path style="fill:#6b6b6b;" d="M 147.0,79.0 L 148.0,80.0 147.0,79.0 Z" />
	<path style="fill:#b8b8b8;" d="M 218.0,79.0 L 219.0,80.0 218.0,79.0 Z" />
	<path style="fill:#969696;" d="M 293.0,79.0 L 294.0,80.0 293.0,79.0 Z" />
	<path style="fill:#555555;" d="M 365.0,79.0 L 366.0,80.0 365.0,79.0 Z" />
	<path style="fill:#303030;" d="M 146.0,80.0 L 147.0,81.0 146.0,80.0 Z" />
	<path style="fill:#555555;" d="M 216.0,80.0 L 217.0,81.0 216.0,80.0 Z" />
	<path style="fill:#cacaca;" d="M 294.0,80.0 L 295.0,81.0 294.0,80.0 M 367.0,80.0 L 368.0,81.0 367.0,80.0 Z" />
	<path style="fill:#969696;" d="M 144.0,81.0 L 145.0,82.0 144.0,81.0 M 215.0,81.0 L 216.0,82.0 215.0,81.0 Z" />
	<path style="fill:#6b6b6b;" d="M 296.0,81.0 L 297.0,82.0 296.0,81.0 Z" />
	<path style="fill:#7a7a7a;" d="M 368.0,81.0 L 369.0,82.0 368.0,81.0 Z" />
	<path style="fill:#464646;" d="M 143.0,82.0 L 144.0,83.0 143.0,82.0 Z" />
	<path style="fill:#303030;" d="M 213.0,82.0 L 214.0,83.0 213.0,82.0 Z" />
	<path style="fill:#d2d2d2;" d="M 214.0,82.0 L 215.0,83.0 214.0,82.0 Z" />
	<path style="fill:#a7a7a7;" d="M 297.0,82.0 L 298.0,83.0 297.0,82.0 Z" />
	<path style="fill:#464646;" d="M 369.0,82.0 L 370.0,83.0 369.0,82.0 Z" />
	<path style="fill:#b8b8b8;" d="M 141.0,83.0 L 142.0,84.0 141.0,83.0 Z" />
	<path style="fill:#6b6b6b;" d="M 212.0,83.0 L 213.0,84.0 212.0,83.0 Z" />
	<path style="fill:#3b3b3b;" d="M 299.0,83.0 L 300.0,84.0 299.0,83.0 Z" />
	<path style="fill:#a7a7a7;" d="M 371.0,83.0 L 372.0,84.0 371.0,83.0 Z" />
	<path style="fill:#7a7a7a;" d="M 140.0,84.0 L 141.0,85.0 140.0,84.0 Z" />
	<path style="fill:#b8b8b8;" d="M 211.0,84.0 L 212.0,85.0 211.0,84.0 Z" />
	<path style="fill:#7a7a7a;" d="M 300.0,84.0 L 301.0,85.0 300.0,84.0 Z" />
	<path style="fill:#555555;" d="M 372.0,84.0 L 373.0,85.0 372.0,84.0 Z" />
	<path style="fill:#3b3b3b;" d="M 139.0,85.0 L 140.0,86.0 139.0,85.0 Z" />
	<path style="fill:#464646;" d="M 209.0,85.0 L 210.0,86.0 209.0,85.0 Z" />
	<path style="fill:#b8b8b8;" d="M 301.0,85.0 L 302.0,86.0 301.0,85.0 Z" />
	<path style="fill:#d2d2d2;" d="M 374.0,85.0 L 375.0,86.0 374.0,85.0 Z" />
	<path style="fill:#a7a7a7;" d="M 137.0,86.0 L 138.0,87.0 137.0,86.0 Z" />
	<path style="fill:#7a7a7a;" d="M 208.0,86.0 L 209.0,87.0 208.0,86.0 Z" />
	<path style="fill:#555555;" d="M 303.0,86.0 L 304.0,87.0 303.0,86.0 Z" />
	<path style="fill:#898989;" d="M 375.0,86.0 L 376.0,87.0 375.0,86.0 Z" />
	<path style="fill:#555555;" d="M 136.0,87.0 L 137.0,88.0 136.0,87.0 Z" />
	<path style="fill:#d2d2d2;" d="M 207.0,87.0 L 208.0,88.0 207.0,87.0 Z" />
	<path style="fill:#a7a7a7;" d="M 304.0,87.0 L 305.0,88.0 304.0,87.0 Z" />
	<path style="fill:#464646;" d="M 376.0,87.0 L 377.0,88.0 376.0,87.0 Z" />
	<path style="fill:#cacaca;" d="M 134.0,88.0 L 135.0,89.0 134.0,88.0 Z" />
	<path style="fill:#555555;" d="M 205.0,88.0 L 206.0,89.0 205.0,88.0 Z" />
	<path style="fill:#303030;" d="M 306.0,88.0 L 307.0,89.0 306.0,88.0 Z" />
	<path style="fill:#b8b8b8;" d="M 378.0,88.0 L 379.0,89.0 378.0,88.0 Z" />
	<path style="fill:#898989;" d="M 133.0,89.0 L 134.0,90.0 133.0,89.0 Z" />
	<path style="fill:#a7a7a7;" d="M 204.0,89.0 L 205.0,90.0 204.0,89.0 Z" />
	<path style="fill:#6b6b6b;" d="M 307.0,89.0 L 308.0,90.0 307.0,89.0 M 379.0,89.0 L 380.0,90.0 379.0,89.0 Z" />
	<path style="fill:#3b3b3b;" d="M 132.0,90.0 L 133.0,91.0 132.0,90.0 M 202.0,90.0 L 203.0,91.0 202.0,90.0 Z" />
	<path style="fill:#a7a7a7;" d="M 308.0,90.0 L 309.0,91.0 308.0,90.0 Z" />
	<path style="fill:#303030;" d="M 380.0,90.0 L 381.0,91.0 380.0,90.0 Z" />
	<path style="fill:#a7a7a7;" d="M 130.0,91.0 L 131.0,92.0 130.0,91.0 Z" />
	<path style="fill:#7a7a7a;" d="M 201.0,91.0 L 202.0,92.0 201.0,91.0 Z" />
	<path style="fill:#3b3b3b;" d="M 310.0,91.0 L 311.0,92.0 310.0,91.0 Z" />
	<path style="fill:#969696;" d="M 382.0,91.0 L 383.0,92.0 382.0,91.0 Z" />
	<path style="fill:#6b6b6b;" d="M 129.0,92.0 L 130.0,93.0 129.0,92.0 Z" />
	<path style="fill:#cacaca;" d="M 200.0,92.0 L 201.0,93.0 200.0,92.0 Z" />
	<path style="fill:#969696;" d="M 311.0,92.0 L 312.0,93.0 311.0,92.0 Z" />
	<path style="fill:#555555;" d="M 383.0,92.0 L 384.0,93.0 383.0,92.0 Z" />
	<path style="fill:#d2d2d2;" d="M 127.0,93.0 L 128.0,94.0 127.0,93.0 Z" />
	<path style="fill:#303030;" d="M 128.0,93.0 L 129.0,94.0 128.0,93.0 Z" />
	<path style="fill:#555555;" d="M 198.0,93.0 L 199.0,94.0 198.0,93.0 Z" />
	<path style="fill:#cacaca;" d="M 312.0,93.0 L 313.0,94.0 312.0,93.0 M 385.0,93.0 L 386.0,94.0 385.0,93.0 Z" />
	<path style="fill:#969696;" d="M 126.0,94.0 L 127.0,95.0 126.0,94.0 Z" />
	<path style="fill:#a7a7a7;" d="M 197.0,94.0 L 198.0,95.0 197.0,94.0 Z" />
	<path style="fill:#555555;" d="M 314.0,94.0 L 315.0,95.0 314.0,94.0 Z" />
	<path style="fill:#7a7a7a;" d="M 386.0,94.0 L 387.0,95.0 386.0,94.0 Z" />
	<path style="fill:#464646;" d="M 125.0,95.0 L 126.0,96.0 125.0,95.0 Z" />
	<path style="fill:#303030;" d="M 195.0,95.0 L 196.0,96.0 195.0,95.0 Z" />
	<path style="fill:#a7a7a7;" d="M 315.0,95.0 L 316.0,96.0 315.0,95.0 Z" />
	<path style="fill:#3b3b3b;" d="M 387.0,95.0 L 388.0,96.0 387.0,95.0 Z" />
	<path style="fill:#b8b8b8;" d="M 123.0,96.0 L 124.0,97.0 123.0,96.0 Z" />
	<path style="fill:#6b6b6b;" d="M 194.0,96.0 L 195.0,97.0 194.0,96.0 Z" />
	<path style="fill:#303030;" d="M 317.0,96.0 L 318.0,97.0 317.0,96.0 Z" />
	<path style="fill:#a7a7a7;" d="M 389.0,96.0 L 390.0,97.0 389.0,96.0 Z" />
	<path style="fill:#7a7a7a;" d="M 122.0,97.0 L 123.0,98.0 122.0,97.0 Z" />
	<path style="fill:#cacaca;" d="M 193.0,97.0 L 194.0,98.0 193.0,97.0 Z" />
	<path style="fill:#7a7a7a;" d="M 318.0,97.0 L 319.0,98.0 318.0,97.0 Z" />
	<path style="fill:#555555;" d="M 390.0,97.0 L 391.0,98.0 390.0,97.0 Z" />
	<path style="fill:#303030;" d="M 121.0,98.0 L 122.0,99.0 121.0,98.0 Z" />
	<path style="fill:#555555;" d="M 191.0,98.0 L 192.0,99.0 191.0,98.0 Z" />
	<path style="fill:#b8b8b8;" d="M 319.0,98.0 L 320.0,99.0 319.0,98.0 Z" />
	<path style="fill:#d2d2d2;" d="M 392.0,98.0 L 393.0,99.0 392.0,98.0 Z" />
	<path style="fill:#a7a7a7;" d="M 119.0,99.0 L 120.0,100.0 119.0,99.0 Z" />
	<path style="fill:#969696;" d="M 190.0,99.0 L 191.0,100.0 190.0,99.0 Z" />
	<path style="fill:#464646;" d="M 321.0,99.0 L 322.0,100.0 321.0,99.0 Z" />
	<path style="fill:#7a7a7a;" d="M 393.0,99.0 L 394.0,100.0 393.0,99.0 Z" />
	<path style="fill:#555555;" d="M 118.0,100.0 L 119.0,101.0 118.0,100.0 Z" />
	<path style="fill:#303030;" d="M 188.0,100.0 L 189.0,101.0 188.0,100.0 Z" />
	<path style="fill:#d2d2d2;" d="M 189.0,100.0 L 190.0,101.0 189.0,100.0 Z" />
	<path style="fill:#969696;" d="M 322.0,100.0 L 323.0,101.0 322.0,100.0 Z" />
	<path style="fill:#464646;" d="M 394.0,100.0 L 395.0,101.0 394.0,100.0 Z" />
	<path style="fill:#cacaca;" d="M 116.0,101.0 L 117.0,102.0 116.0,101.0 Z" />
	<path style="fill:#6b6b6b;" d="M 187.0,101.0 L 188.0,102.0 187.0,101.0 Z" />
	<path style="fill:#cacaca;" d="M 323.0,101.0 L 324.0,102.0 323.0,101.0 Z" />
	<path style="fill:#b8b8b8;" d="M 396.0,101.0 L 397.0,102.0 396.0,101.0 Z" />
	<path style="fill:#7a7a7a;" d="M 115.0,102.0 L 116.0,103.0 115.0,102.0 Z" />
	<path style="fill:#b8b8b8;" d="M 186.0,102.0 L 187.0,103.0 186.0,102.0 Z" />
	<path style="fill:#555555;" d="M 325.0,102.0 L 326.0,103.0 325.0,102.0 Z" />
	<path style="fill:#6b6b6b;" d="M 397.0,102.0 L 398.0,103.0 397.0,102.0 Z" />
	<path style="fill:#3b3b3b;" d="M 114.0,103.0 L 115.0,104.0 114.0,103.0 Z" />
	<path style="fill:#464646;" d="M 184.0,103.0 L 185.0,104.0 184.0,103.0 Z" />
	<path style="fill:#a7a7a7;" d="M 326.0,103.0 L 327.0,104.0 326.0,103.0 Z" />
	<path style="fill:#303030;" d="M 398.0,103.0 L 399.0,104.0 398.0,103.0 Z" />
	<path style="fill:#d2d2d2;" d="M 399.0,103.0 L 400.0,104.0 399.0,103.0 Z" />
	<path style="fill:#a7a7a7;" d="M 112.0,104.0 L 113.0,105.0 112.0,104.0 Z" />
	<path style="fill:#898989;" d="M 183.0,104.0 L 184.0,105.0 183.0,104.0 Z" />
	<path style="fill:#3b3b3b;" d="M 328.0,104.0 L 329.0,105.0 328.0,104.0 Z" />
	<path style="fill:#969696;" d="M 400.0,104.0 L 401.0,105.0 400.0,104.0 Z" />
	<path style="fill:#6b6b6b;" d="M 111.0,105.0 L 112.0,106.0 111.0,105.0 Z" />
	<path style="fill:#d2d2d2;" d="M 182.0,105.0 L 183.0,106.0 182.0,105.0 Z" />
	<path style="fill:#7a7a7a;" d="M 329.0,105.0 L 330.0,106.0 329.0,105.0 Z" />
	<path style="fill:#555555;" d="M 401.0,105.0 L 402.0,106.0 401.0,105.0 Z" />
	<path style="fill:#cacaca;" d="M 109.0,106.0 L 110.0,107.0 109.0,106.0 Z" />
	<path style="fill:#555555;" d="M 180.0,106.0 L 181.0,107.0 180.0,106.0 Z" />
	<path style="fill:#b8b8b8;" d="M 330.0,106.0 L 331.0,107.0 330.0,106.0 Z" />
	<path style="fill:#cacaca;" d="M 403.0,106.0 L 404.0,107.0 403.0,106.0 Z" />
	<path style="fill:#969696;" d="M 108.0,107.0 L 109.0,108.0 108.0,107.0 Z" />
	<path style="fill:#a7a7a7;" d="M 179.0,107.0 L 180.0,108.0 179.0,107.0 Z" />
	<path style="fill:#464646;" d="M 332.0,107.0 L 333.0,108.0 332.0,107.0 Z" />
	<path style="fill:#6b6b6b;" d="M 404.0,107.0 L 405.0,108.0 404.0,107.0 Z" />
	<path style="fill:#464646;" d="M 107.0,108.0 L 108.0,109.0 107.0,108.0 M 177.0,108.0 L 178.0,109.0 177.0,108.0 Z" />
	<path style="fill:#969696;" d="M 333.0,108.0 L 334.0,109.0 333.0,108.0 Z" />
	<path style="fill:#3b3b3b;" d="M 405.0,108.0 L 406.0,109.0 405.0,108.0 Z" />
	<path style="fill:#b8b8b8;" d="M 105.0,109.0 L 106.0,110.0 105.0,109.0 Z" />
	<path style="fill:#7a7a7a;" d="M 176.0,109.0 L 177.0,110.0 176.0,109.0 Z" />
	<path style="fill:#d2d2d2;" d="M 334.0,109.0 L 335.0,110.0 334.0,109.0 Z" />
	<path style="fill:#303030;" d="M 335.0,109.0 L 336.0,110.0 335.0,109.0 Z" />
	<path style="fill:#a7a7a7;" d="M 407.0,109.0 L 408.0,110.0 407.0,109.0 Z" />
	<path style="fill:#6b6b6b;" d="M 104.0,110.0 L 105.0,111.0 104.0,110.0 Z" />
	<path style="fill:#cacaca;" d="M 175.0,110.0 L 176.0,111.0 175.0,110.0 Z" />
	<path style="fill:#6b6b6b;" d="M 336.0,110.0 L 337.0,111.0 336.0,110.0 Z" />
	<path style="fill:#555555;" d="M 408.0,110.0 L 409.0,111.0 408.0,110.0 Z" />
	<path style="fill:#303030;" d="M 103.0,111.0 L 104.0,112.0 103.0,111.0 Z" />
	<path style="fill:#555555;" d="M 173.0,111.0 L 174.0,112.0 173.0,111.0 Z" />
	<path style="fill:#a7a7a7;" d="M 337.0,111.0 L 338.0,112.0 337.0,111.0 Z" />
	<path style="fill:#cacaca;" d="M 410.0,111.0 L 411.0,112.0 410.0,111.0 Z" />
	<path style="fill:#a7a7a7;" d="M 101.0,112.0 L 102.0,113.0 101.0,112.0 M 172.0,112.0 L 173.0,113.0 172.0,112.0 Z" />
	<path style="fill:#3b3b3b;" d="M 339.0,112.0 L 340.0,113.0 339.0,112.0 Z" />
	<path style="fill:#7a7a7a;" d="M 411.0,112.0 L 412.0,113.0 411.0,112.0 Z" />
	<path style="fill:#555555;" d="M 100.0,113.0 L 101.0,114.0 100.0,113.0 Z" />
	<path style="fill:#3b3b3b;" d="M 170.0,113.0 L 171.0,114.0 170.0,113.0 Z" />
	<path style="fill:#7a7a7a;" d="M 340.0,113.0 L 341.0,114.0 340.0,113.0 Z" />
	<path style="fill:#464646;" d="M 412.0,113.0 L 413.0,114.0 412.0,113.0 Z" />
	<path style="fill:#b8b8b8;" d="M 98.0,114.0 L 99.0,115.0 98.0,114.0 Z" />
	<path style="fill:#6b6b6b;" d="M 169.0,114.0 L 170.0,115.0 169.0,114.0 Z" />
	<path style="fill:#b8b8b8;" d="M 341.0,114.0 L 342.0,115.0 341.0,114.0 M 414.0,114.0 L 415.0,115.0 414.0,114.0 Z" />
	<path style="fill:#7a7a7a;" d="M 97.0,115.0 L 98.0,116.0 97.0,115.0 Z" />
	<path style="fill:#cacaca;" d="M 168.0,115.0 L 169.0,116.0 168.0,115.0 Z" />
	<path style="fill:#555555;" d="M 343.0,115.0 L 344.0,116.0 343.0,115.0 M 415.0,115.0 L 416.0,116.0 415.0,115.0 Z" />
	<path style="fill:#3b3b3b;" d="M 96.0,116.0 L 97.0,117.0 96.0,116.0 Z" />
	<path style="fill:#555555;" d="M 166.0,116.0 L 167.0,117.0 166.0,116.0 Z" />
	<path style="fill:#a7a7a7;" d="M 344.0,116.0 L 345.0,117.0 344.0,116.0 Z" />
	<path style="fill:#d2d2d2;" d="M 417.0,116.0 L 418.0,117.0 417.0,116.0 Z" />
	<path style="fill:#a7a7a7;" d="M 94.0,117.0 L 95.0,118.0 94.0,117.0 Z" />
	<path style="fill:#969696;" d="M 165.0,117.0 L 166.0,118.0 165.0,117.0 Z" />
	<path style="fill:#303030;" d="M 346.0,117.0 L 347.0,118.0 346.0,117.0 Z" />
	<path style="fill:#969696;" d="M 418.0,117.0 L 419.0,118.0 418.0,117.0 Z" />
	<path style="fill:#555555;" d="M 93.0,118.0 L 94.0,119.0 93.0,118.0 Z" />
	<path style="fill:#303030;" d="M 163.0,118.0 L 164.0,119.0 163.0,118.0 Z" />
	<path style="fill:#6b6b6b;" d="M 347.0,118.0 L 348.0,119.0 347.0,118.0 Z" />
	<path style="fill:#555555;" d="M 419.0,118.0 L 420.0,119.0 419.0,118.0 Z" />
	<path style="fill:#cacaca;" d="M 91.0,119.0 L 92.0,120.0 91.0,119.0 Z" />
	<path style="fill:#6b6b6b;" d="M 162.0,119.0 L 163.0,120.0 162.0,119.0 Z" />
	<path style="fill:#b8b8b8;" d="M 348.0,119.0 L 349.0,120.0 348.0,119.0 M 421.0,119.0 L 422.0,120.0 421.0,119.0 Z" />
	<path style="fill:#969696;" d="M 90.0,120.0 L 91.0,121.0 90.0,120.0 Z" />
	<path style="fill:#b8b8b8;" d="M 161.0,120.0 L 162.0,121.0 161.0,120.0 Z" />
	<path style="fill:#3b3b3b;" d="M 350.0,120.0 L 351.0,121.0 350.0,120.0 Z" />
	<path style="fill:#6b6b6b;" d="M 422.0,120.0 L 423.0,121.0 422.0,120.0 Z" />
	<path style="fill:#464646;" d="M 89.0,121.0 L 90.0,122.0 89.0,121.0 M 159.0,121.0 L 160.0,122.0 159.0,121.0 Z" />
	<path style="fill:#969696;" d="M 351.0,121.0 L 352.0,122.0 351.0,121.0 Z" />
	<path style="fill:#303030;" d="M 423.0,121.0 L 424.0,122.0 423.0,121.0 Z" />
	<path style="fill:#b8b8b8;" d="M 87.0,122.0 L 88.0,123.0 87.0,122.0 Z" />
	<path style="fill:#969696;" d="M 158.0,122.0 L 159.0,123.0 158.0,122.0 Z" />
	<path style="fill:#cacaca;" d="M 352.0,122.0 L 353.0,123.0 352.0,122.0 Z" />
	<path style="fill:#a7a7a7;" d="M 425.0,122.0 L 426.0,123.0 425.0,122.0 Z" />
	<path style="fill:#6b6b6b;" d="M 86.0,123.0 L 87.0,124.0 86.0,123.0 Z" />
	<path style="fill:#d2d2d2;" d="M 157.0,123.0 L 158.0,124.0 157.0,123.0 Z" />
	<path style="fill:#555555;" d="M 354.0,123.0 L 355.0,124.0 354.0,123.0 M 426.0,123.0 L 427.0,124.0 426.0,123.0 Z" />
	<path style="fill:#303030;" d="M 85.0,124.0 L 86.0,125.0 85.0,124.0 Z" />
	<path style="fill:#555555;" d="M 155.0,124.0 L 156.0,125.0 155.0,124.0 Z" />
	<path style="fill:#a7a7a7;" d="M 355.0,124.0 L 356.0,125.0 355.0,124.0 Z" />
	<path style="fill:#cacaca;" d="M 428.0,124.0 L 429.0,125.0 428.0,124.0 Z" />
	<path style="fill:#a7a7a7;" d="M 83.0,125.0 L 84.0,126.0 83.0,125.0 Z" />
	<path style="fill:#b8b8b8;" d="M 154.0,125.0 L 155.0,126.0 154.0,125.0 Z" />
	<path style="fill:#303030;" d="M 357.0,125.0 L 358.0,126.0 357.0,125.0 Z" />
	<path style="fill:#7a7a7a;" d="M 429.0,125.0 L 430.0,126.0 429.0,125.0 Z" />
	<path style="fill:#464646;" d="M 82.0,126.0 L 83.0,127.0 82.0,126.0 M 152.0,126.0 L 153.0,127.0 152.0,126.0 Z" />
	<path style="fill:#7a7a7a;" d="M 358.0,126.0 L 359.0,127.0 358.0,126.0 Z" />
	<path style="fill:#464646;" d="M 430.0,126.0 L 431.0,127.0 430.0,126.0 Z" />
	<path style="fill:#b8b8b8;" d="M 80.0,127.0 L 81.0,128.0 80.0,127.0 Z" />
	<path style="fill:#7a7a7a;" d="M 151.0,127.0 L 152.0,128.0 151.0,127.0 Z" />
	<path style="fill:#b8b8b8;" d="M 359.0,127.0 L 360.0,128.0 359.0,127.0 Z" />
	<path style="fill:#a7a7a7;" d="M 432.0,127.0 L 433.0,128.0 432.0,127.0 Z" />
	<path style="fill:#7a7a7a;" d="M 79.0,128.0 L 80.0,129.0 79.0,128.0 Z" />
	<path style="fill:#cacaca;" d="M 150.0,128.0 L 151.0,129.0 150.0,128.0 Z" />
	<path style="fill:#464646;" d="M 361.0,128.0 L 362.0,129.0 361.0,128.0 Z" />
	<path style="fill:#555555;" d="M 433.0,128.0 L 434.0,129.0 433.0,128.0 Z" />
	<path style="fill:#3b3b3b;" d="M 78.0,129.0 L 79.0,130.0 78.0,129.0 Z" />
	<path style="fill:#555555;" d="M 148.0,129.0 L 149.0,130.0 148.0,129.0 Z" />
	<path style="fill:#969696;" d="M 362.0,129.0 L 363.0,130.0 362.0,129.0 Z" />
	<path style="fill:#d2d2d2;" d="M 435.0,129.0 L 436.0,130.0 435.0,129.0 Z" />
	<path style="fill:#a7a7a7;" d="M 76.0,130.0 L 77.0,131.0 76.0,130.0 M 147.0,130.0 L 148.0,131.0 147.0,130.0 Z" />
	<path style="fill:#cacaca;" d="M 363.0,130.0 L 364.0,131.0 363.0,130.0 Z" />
	<path style="fill:#969696;" d="M 436.0,130.0 L 437.0,131.0 436.0,130.0 Z" />
	<path style="fill:#555555;" d="M 75.0,131.0 L 76.0,132.0 75.0,131.0 Z" />
	<path style="fill:#3b3b3b;" d="M 145.0,131.0 L 146.0,132.0 145.0,131.0 Z" />
	<path style="fill:#6b6b6b;" d="M 365.0,131.0 L 366.0,132.0 365.0,131.0 Z" />
	<path style="fill:#464646;" d="M 437.0,131.0 L 438.0,132.0 437.0,131.0 Z" />
	<path style="fill:#cacaca;" d="M 73.0,132.0 L 74.0,133.0 73.0,132.0 Z" />
	<path style="fill:#7a7a7a;" d="M 144.0,132.0 L 145.0,133.0 144.0,132.0 Z" />
	<path style="fill:#a7a7a7;" d="M 366.0,132.0 L 367.0,133.0 366.0,132.0 Z" />
	<path style="fill:#b8b8b8;" d="M 439.0,132.0 L 440.0,133.0 439.0,132.0 Z" />
	<path style="fill:#969696;" d="M 72.0,133.0 L 73.0,134.0 72.0,133.0 Z" />
	<path style="fill:#cacaca;" d="M 143.0,133.0 L 144.0,134.0 143.0,133.0 Z" />
	<path style="fill:#3b3b3b;" d="M 368.0,133.0 L 369.0,134.0 368.0,133.0 Z" />
	<path style="fill:#6b6b6b;" d="M 440.0,133.0 L 441.0,134.0 440.0,133.0 Z" />
	<path style="fill:#3b3b3b;" d="M 71.0,134.0 L 72.0,135.0 71.0,134.0 Z" />
	<path style="fill:#555555;" d="M 141.0,134.0 L 142.0,135.0 141.0,134.0 Z" />
	<path style="fill:#7a7a7a;" d="M 369.0,134.0 L 370.0,135.0 369.0,134.0 Z" />
	<path style="fill:#303030;" d="M 441.0,134.0 L 442.0,135.0 441.0,134.0 Z" />
	<path style="fill:#a7a7a7;" d="M 69.0,135.0 L 70.0,136.0 69.0,135.0 Z" />
	<path style="fill:#969696;" d="M 140.0,135.0 L 141.0,136.0 140.0,135.0 Z" />
	<path style="fill:#b8b8b8;" d="M 370.0,135.0 L 371.0,136.0 370.0,135.0 Z" />
	<path style="fill:#969696;" d="M 443.0,135.0 L 444.0,136.0 443.0,135.0 Z" />
	<path style="fill:#6b6b6b;" d="M 68.0,136.0 L 69.0,137.0 68.0,136.0 Z" />
	<path style="fill:#303030;" d="M 138.0,136.0 L 139.0,137.0 138.0,136.0 Z" />
	<path style="fill:#464646;" d="M 372.0,136.0 L 373.0,137.0 372.0,136.0 Z" />
	<path style="fill:#555555;" d="M 444.0,136.0 L 445.0,137.0 444.0,136.0 Z" />
	<path style="fill:#d2d2d2;" d="M 66.0,137.0 L 67.0,138.0 66.0,137.0 Z" />
	<path style="fill:#303030;" d="M 67.0,137.0 L 68.0,138.0 67.0,137.0 Z" />
	<path style="fill:#6b6b6b;" d="M 137.0,137.0 L 138.0,138.0 137.0,137.0 Z" />
	<path style="fill:#969696;" d="M 373.0,137.0 L 374.0,138.0 373.0,137.0 Z" />
	<path style="fill:#cacaca;" d="M 446.0,137.0 L 447.0,138.0 446.0,137.0 Z" />
	<path style="fill:#969696;" d="M 65.0,138.0 L 66.0,139.0 65.0,138.0 Z" />
	<path style="fill:#b8b8b8;" d="M 136.0,138.0 L 137.0,139.0 136.0,138.0 Z" />
	<path style="fill:#d2d2d2;" d="M 374.0,138.0 L 375.0,139.0 374.0,138.0 Z" />
	<path style="fill:#303030;" d="M 375.0,138.0 L 376.0,139.0 375.0,138.0 Z" />
	<path style="fill:#7a7a7a;" d="M 447.0,138.0 L 448.0,139.0 447.0,138.0 Z" />
	<path style="fill:#464646;" d="M 64.0,139.0 L 65.0,140.0 64.0,139.0 Z" />
	<path style="fill:#555555;" d="M 134.0,139.0 L 135.0,140.0 134.0,139.0 Z" />
	<path style="fill:#6b6b6b;" d="M 376.0,139.0 L 377.0,140.0 376.0,139.0 Z" />
	<path style="fill:#3b3b3b;" d="M 448.0,139.0 L 449.0,140.0 448.0,139.0 Z" />
	<path style="fill:#b8b8b8;" d="M 62.0,140.0 L 63.0,141.0 62.0,140.0 Z" />
	<path style="fill:#969696;" d="M 133.0,140.0 L 134.0,141.0 133.0,140.0 Z" />
	<path style="fill:#a7a7a7;" d="M 377.0,140.0 L 378.0,141.0 377.0,140.0 M 450.0,140.0 L 451.0,141.0 450.0,140.0 Z" />
	<path style="fill:#7a7a7a;" d="M 61.0,141.0 L 62.0,142.0 61.0,141.0 Z" />
	<path style="fill:#d2d2d2;" d="M 132.0,141.0 L 133.0,142.0 132.0,141.0 Z" />
	<path style="fill:#3b3b3b;" d="M 379.0,141.0 L 380.0,142.0 379.0,141.0 Z" />
	<path style="fill:#555555;" d="M 451.0,141.0 L 452.0,142.0 451.0,141.0 Z" />
	<path style="fill:#303030;" d="M 60.0,142.0 L 61.0,143.0 60.0,142.0 Z" />
	<path style="fill:#6b6b6b;" d="M 130.0,142.0 L 131.0,143.0 130.0,142.0 Z" />
	<path style="fill:#7a7a7a;" d="M 380.0,142.0 L 381.0,143.0 380.0,142.0 Z" />
	<path style="fill:#d2d2d2;" d="M 453.0,142.0 L 454.0,143.0 453.0,142.0 Z" />
	<path style="fill:#a7a7a7;" d="M 58.0,143.0 L 59.0,144.0 58.0,143.0 Z" />
	<path style="fill:#b8b8b8;" d="M 129.0,143.0 L 130.0,144.0 129.0,143.0 Z" />
	<path style="fill:#cacaca;" d="M 381.0,143.0 L 382.0,144.0 381.0,143.0 Z" />
	<path style="fill:#898989;" d="M 454.0,143.0 L 455.0,144.0 454.0,143.0 Z" />
	<path style="fill:#555555;" d="M 57.0,144.0 L 58.0,145.0 57.0,144.0 Z" />
	<path style="fill:#464646;" d="M 127.0,144.0 L 128.0,145.0 127.0,144.0 Z" />
	<path style="fill:#555555;" d="M 383.0,144.0 L 384.0,145.0 383.0,144.0 Z" />
	<path style="fill:#464646;" d="M 455.0,144.0 L 456.0,145.0 455.0,144.0 Z" />
	<path style="fill:#cacaca;" d="M 55.0,145.0 L 56.0,146.0 55.0,145.0 Z" />
	<path style="fill:#7a7a7a;" d="M 126.0,145.0 L 127.0,146.0 126.0,145.0 Z" />
	<path style="fill:#a7a7a7;" d="M 384.0,145.0 L 385.0,146.0 384.0,145.0 Z" />
	<path style="fill:#b8b8b8;" d="M 457.0,145.0 L 458.0,146.0 457.0,145.0 Z" />
	<path style="fill:#898989;" d="M 54.0,146.0 L 55.0,147.0 54.0,146.0 Z" />
	<path style="fill:#cacaca;" d="M 125.0,146.0 L 126.0,147.0 125.0,146.0 Z" />
	<path style="fill:#303030;" d="M 386.0,146.0 L 387.0,147.0 386.0,146.0 Z" />
	<path style="fill:#6b6b6b;" d="M 458.0,146.0 L 459.0,147.0 458.0,146.0 Z" />
	<path style="fill:#3b3b3b;" d="M 53.0,147.0 L 54.0,148.0 53.0,147.0 Z" />
	<path style="fill:#555555;" d="M 123.0,147.0 L 124.0,148.0 123.0,147.0 Z" />
	<path style="fill:#6b6b6b;" d="M 387.0,147.0 L 388.0,148.0 387.0,147.0 Z" />
	<path style="fill:#303030;" d="M 459.0,147.0 L 460.0,148.0 459.0,147.0 Z" />
	<path style="fill:#d2d2d2;" d="M 460.0,147.0 L 461.0,148.0 460.0,147.0 Z" />
	<path style="fill:#a7a7a7;" d="M 51.0,148.0 L 52.0,149.0 51.0,148.0 M 122.0,148.0 L 123.0,149.0 122.0,148.0 Z" />
	<path style="fill:#b8b8b8;" d="M 388.0,148.0 L 389.0,149.0 388.0,148.0 Z" />
	<path style="fill:#969696;" d="M 461.0,148.0 L 462.0,149.0 461.0,148.0 Z" />
	<path style="fill:#6b6b6b;" d="M 50.0,149.0 L 51.0,150.0 50.0,149.0 Z" />
	<path style="fill:#3b3b3b;" d="M 120.0,149.0 L 121.0,150.0 120.0,149.0 Z" />
	<path style="fill:#464646;" d="M 390.0,149.0 L 391.0,150.0 390.0,149.0 Z" />
	<path style="fill:#555555;" d="M 462.0,149.0 L 463.0,150.0 462.0,149.0 Z" />
	<path style="fill:#cacaca;" d="M 48.0,150.0 L 49.0,151.0 48.0,150.0 Z" />
	<path style="fill:#7a7a7a;" d="M 119.0,150.0 L 120.0,151.0 119.0,150.0 Z" />
	<path style="fill:#969696;" d="M 391.0,150.0 L 392.0,151.0 391.0,150.0 Z" />
	<path style="fill:#cacaca;" d="M 464.0,150.0 L 465.0,151.0 464.0,150.0 Z" />
	<path style="fill:#969696;" d="M 47.0,151.0 L 48.0,152.0 47.0,151.0 Z" />
	<path style="fill:#cacaca;" d="M 118.0,151.0 L 119.0,152.0 118.0,151.0 M 392.0,151.0 L 393.0,152.0 392.0,151.0 Z" />
	<path style="fill:#7a7a7a;" d="M 465.0,151.0 L 466.0,152.0 465.0,151.0 Z" />
	<path style="fill:#464646;" d="M 46.0,152.0 L 47.0,153.0 46.0,152.0 Z" />
	<path style="fill:#555555;" d="M 116.0,152.0 L 117.0,153.0 116.0,152.0 M 394.0,152.0 L 395.0,153.0 394.0,152.0 Z" />
	<path style="fill:#3b3b3b;" d="M 466.0,152.0 L 467.0,153.0 466.0,152.0 Z" />
	<path style="fill:#b8b8b8;" d="M 44.0,153.0 L 45.0,154.0 44.0,153.0 Z" />
	<path style="fill:#969696;" d="M 115.0,153.0 L 116.0,154.0 115.0,153.0 Z" />
	<path style="fill:#a7a7a7;" d="M 395.0,153.0 L 396.0,154.0 395.0,153.0 M 468.0,153.0 L 469.0,154.0 468.0,153.0 Z" />
	<path style="fill:#7a7a7a;" d="M 43.0,154.0 L 44.0,155.0 43.0,154.0 Z" />
	<path style="fill:#303030;" d="M 113.0,154.0 L 114.0,155.0 113.0,154.0 M 397.0,154.0 L 398.0,155.0 397.0,154.0 Z" />
	<path style="fill:#555555;" d="M 469.0,154.0 L 470.0,155.0 469.0,154.0 Z" />
	<path style="fill:#303030;" d="M 42.0,155.0 L 43.0,156.0 42.0,155.0 Z" />
	<path style="fill:#6b6b6b;" d="M 112.0,155.0 L 113.0,156.0 112.0,155.0 Z" />
	<path style="fill:#7a7a7a;" d="M 398.0,155.0 L 399.0,156.0 398.0,155.0 Z" />
	<path style="fill:#cacaca;" d="M 471.0,155.0 L 472.0,156.0 471.0,155.0 Z" />
	<path style="fill:#a7a7a7;" d="M 40.0,156.0 L 41.0,157.0 40.0,156.0 Z" />
	<path style="fill:#b8b8b8;" d="M 111.0,156.0 L 112.0,157.0 111.0,156.0 M 399.0,156.0 L 400.0,157.0 399.0,156.0 Z" />
	<path style="fill:#7a7a7a;" d="M 472.0,156.0 L 473.0,157.0 472.0,156.0 Z" />
	<path style="fill:#555555;" d="M 39.0,157.0 L 40.0,158.0 39.0,157.0 M 109.0,157.0 L 110.0,158.0 109.0,157.0 Z" />
	<path style="fill:#464646;" d="M 401.0,157.0 L 402.0,158.0 401.0,157.0 M 473.0,157.0 L 474.0,158.0 473.0,157.0 Z" />
	<path style="fill:#b8b8b8;" d="M 37.0,158.0 L 38.0,159.0 37.0,158.0 Z" />
	<path style="fill:#969696;" d="M 108.0,158.0 L 109.0,159.0 108.0,158.0 M 402.0,158.0 L 403.0,159.0 402.0,158.0 Z" />
	<path style="fill:#b8b8b8;" d="M 475.0,158.0 L 476.0,159.0 475.0,158.0 Z" />
	<path style="fill:#7a7a7a;" d="M 36.0,159.0 L 37.0,160.0 36.0,159.0 Z" />
	<path style="fill:#303030;" d="M 106.0,159.0 L 107.0,160.0 106.0,159.0 Z" />
	<path style="fill:#d2d2d2;" d="M 107.0,159.0 L 108.0,160.0 107.0,159.0 Z" />
	<path style="fill:#cacaca;" d="M 403.0,159.0 L 404.0,160.0 403.0,159.0 Z" />
	<path style="fill:#6b6b6b;" d="M 476.0,159.0 L 477.0,160.0 476.0,159.0 Z" />
	<path style="fill:#3b3b3b;" d="M 35.0,160.0 L 36.0,161.0 35.0,160.0 Z" />
	<path style="fill:#6b6b6b;" d="M 105.0,160.0 L 106.0,161.0 105.0,160.0 M 405.0,160.0 L 406.0,161.0 405.0,160.0 Z" />
	<path style="fill:#303030;" d="M 477.0,160.0 L 478.0,161.0 477.0,160.0 Z" />
	<path style="fill:#d2d2d2;" d="M 478.0,160.0 L 479.0,161.0 478.0,160.0 Z" />
	<path style="fill:#a7a7a7;" d="M 33.0,161.0 L 34.0,162.0 33.0,161.0 Z" />
	<path style="fill:#b8b8b8;" d="M 104.0,161.0 L 105.0,162.0 104.0,161.0 Z" />
	<path style="fill:#a7a7a7;" d="M 406.0,161.0 L 407.0,162.0 406.0,161.0 Z" />
	<path style="fill:#969696;" d="M 479.0,161.0 L 480.0,162.0 479.0,161.0 Z" />
	<path style="fill:#6b6b6b;" d="M 32.0,162.0 L 33.0,163.0 32.0,162.0 Z" />
	<path style="fill:#464646;" d="M 102.0,162.0 L 103.0,163.0 102.0,162.0 Z" />
	<path style="fill:#3b3b3b;" d="M 408.0,162.0 L 409.0,163.0 408.0,162.0 Z" />
	<path style="fill:#555555;" d="M 480.0,162.0 L 481.0,163.0 480.0,162.0 Z" />
	<path style="fill:#cacaca;" d="M 30.0,163.0 L 31.0,164.0 30.0,163.0 Z" />
	<path style="fill:#898989;" d="M 101.0,163.0 L 102.0,164.0 101.0,163.0 Z" />
	<path style="fill:#7a7a7a;" d="M 409.0,163.0 L 410.0,164.0 409.0,163.0 Z" />
	<path style="fill:#b8b8b8;" d="M 482.0,163.0 L 483.0,164.0 482.0,163.0 Z" />
	<path style="fill:#898989;" d="M 29.0,164.0 L 30.0,165.0 29.0,164.0 Z" />
	<path style="fill:#d2d2d2;" d="M 100.0,164.0 L 101.0,165.0 100.0,164.0 Z" />
	<path style="fill:#b8b8b8;" d="M 410.0,164.0 L 411.0,165.0 410.0,164.0 Z" />
	<path style="fill:#7a7a7a;" d="M 483.0,164.0 L 484.0,165.0 483.0,164.0 Z" />
	<path style="fill:#555555;" d="M 28.0,165.0 L 29.0,166.0 28.0,165.0 M 98.0,165.0 L 99.0,166.0 98.0,165.0 Z" />
	<path style="fill:#464646;" d="M 412.0,165.0 L 413.0,166.0 412.0,165.0 M 484.0,165.0 L 485.0,166.0 484.0,165.0 Z" />
	<path style="fill:#d2d2d2;" d="M 26.0,166.0 L 27.0,167.0 26.0,166.0 Z" />
	<path style="fill:#a7a7a7;" d="M 97.0,166.0 L 98.0,167.0 97.0,166.0 Z" />
	<path style="fill:#969696;" d="M 413.0,166.0 L 414.0,167.0 413.0,166.0 Z" />
	<path style="fill:#cacaca;" d="M 486.0,166.0 L 487.0,167.0 486.0,166.0 Z" />
	<path style="fill:#b8b8b8;" d="M 25.0,167.0 L 26.0,168.0 25.0,167.0 Z" />
	<path style="fill:#464646;" d="M 95.0,167.0 L 96.0,168.0 95.0,167.0 Z" />
	<path style="fill:#d2d2d2;" d="M 414.0,167.0 L 415.0,168.0 414.0,167.0 Z" />
	<path style="fill:#303030;" d="M 415.0,167.0 L 416.0,168.0 415.0,167.0 Z" />
	<path style="fill:#b8b8b8;" d="M 487.0,167.0 L 488.0,168.0 487.0,167.0 Z" />
	<path style="fill:#a7a7a7;" d="M 24.0,168.0 L 25.0,169.0 24.0,168.0 Z" />
	<path style="fill:#898989;" d="M 94.0,168.0 L 95.0,169.0 94.0,168.0 Z" />
	<path style="fill:#6b6b6b;" d="M 416.0,168.0 L 417.0,169.0 416.0,168.0 Z" />
	<path style="fill:#969696;" d="M 488.0,168.0 L 489.0,169.0 488.0,168.0 M 23.0,169.0 L 24.0,170.0 23.0,169.0 Z" />
	<path style="fill:#cacaca;" d="M 93.0,169.0 L 94.0,170.0 93.0,169.0 Z" />
	<path style="fill:#a7a7a7;" d="M 417.0,169.0 L 418.0,170.0 417.0,169.0 Z" />
	<path style="fill:#898989;" d="M 489.0,169.0 L 490.0,170.0 489.0,169.0 Z" />
	<path style="fill:#969696;" d="M 22.0,170.0 L 23.0,171.0 22.0,170.0 Z" />
	<path style="fill:#555555;" d="M 91.0,170.0 L 92.0,171.0 91.0,170.0 Z" />
	<path style="fill:#3b3b3b;" d="M 419.0,170.0 L 420.0,171.0 419.0,170.0 Z" />
	<path style="fill:#7a7a7a;" d="M 490.0,170.0 L 491.0,171.0 490.0,170.0 Z" />
	<path style="fill:#969696;" d="M 21.0,171.0 L 22.0,172.0 21.0,171.0 Z" />
	<path style="fill:#a7a7a7;" d="M 90.0,171.0 L 91.0,172.0 90.0,171.0 Z" />
	<path style="fill:#898989;" d="M 420.0,171.0 L 421.0,172.0 420.0,171.0 M 491.0,171.0 L 492.0,172.0 491.0,171.0 Z" />
	<path style="fill:#b8b8b8;" d="M 20.0,172.0 L 21.0,173.0 20.0,172.0 Z" />
	<path style="fill:#3b3b3b;" d="M 88.0,172.0 L 89.0,173.0 88.0,172.0 Z" />
	<path style="fill:#cacaca;" d="M 421.0,172.0 L 422.0,173.0 421.0,172.0 Z" />
	<path style="fill:#a7a7a7;" d="M 492.0,172.0 L 493.0,173.0 492.0,172.0 Z" />
	<path style="fill:#cacaca;" d="M 19.0,173.0 L 20.0,174.0 19.0,173.0 Z" />
	<path style="fill:#7a7a7a;" d="M 87.0,173.0 L 88.0,174.0 87.0,173.0 Z" />
	<path style="fill:#555555;" d="M 423.0,173.0 L 424.0,174.0 423.0,173.0 Z" />
	<path style="fill:#b8b8b8;" d="M 493.0,173.0 L 494.0,174.0 493.0,173.0 Z" />
	<path style="fill:#cacaca;" d="M 86.0,174.0 L 87.0,175.0 86.0,174.0 Z" />
	<path style="fill:#a7a7a7;" d="M 424.0,174.0 L 425.0,175.0 424.0,174.0 Z" />
	<path style="fill:#303030;" d="M 18.0,175.0 L 19.0,176.0 18.0,175.0 Z" />
	<path style="fill:#555555;" d="M 84.0,175.0 L 85.0,176.0 84.0,175.0 Z" />
	<path style="fill:#303030;" d="M 426.0,175.0 L 427.0,176.0 426.0,175.0 Z" />
	<path style="fill:#6b6b6b;" d="M 17.0,176.0 L 18.0,177.0 17.0,176.0 Z" />
	<path style="fill:#969696;" d="M 83.0,176.0 L 84.0,177.0 83.0,176.0 Z" />
	<path style="fill:#6b6b6b;" d="M 427.0,176.0 L 428.0,177.0 427.0,176.0 Z" />
	<path style="fill:#555555;" d="M 495.0,176.0 L 496.0,177.0 495.0,176.0 Z" />
	<path style="fill:#a7a7a7;" d="M 16.0,177.0 L 17.0,178.0 16.0,177.0 Z" />
	<path style="fill:#303030;" d="M 81.0,177.0 L 82.0,178.0 81.0,177.0 Z" />
	<path style="fill:#d2d2d2;" d="M 82.0,177.0 L 83.0,178.0 82.0,177.0 Z" />
	<path style="fill:#b8b8b8;" d="M 428.0,177.0 L 429.0,178.0 428.0,177.0 Z" />
	<path style="fill:#969696;" d="M 496.0,177.0 L 497.0,178.0 496.0,177.0 Z" />
	<path style="fill:#6b6b6b;" d="M 80.0,178.0 L 81.0,179.0 80.0,178.0 Z" />
	<path style="fill:#464646;" d="M 430.0,178.0 L 431.0,179.0 430.0,178.0 M 15.0,179.0 L 16.0,180.0 15.0,179.0 Z" />
	<path style="fill:#b8b8b8;" d="M 79.0,179.0 L 80.0,180.0 79.0,179.0 Z" />
	<path style="fill:#898989;" d="M 431.0,179.0 L 432.0,180.0 431.0,179.0 Z" />
	<path style="fill:#3b3b3b;" d="M 497.0,179.0 L 498.0,180.0 497.0,179.0 Z" />
	<path style="fill:#a7a7a7;" d="M 14.0,180.0 L 15.0,181.0 14.0,180.0 Z" />
	<path style="fill:#464646;" d="M 77.0,180.0 L 78.0,181.0 77.0,180.0 Z" />
	<path style="fill:#cacaca;" d="M 432.0,180.0 L 433.0,181.0 432.0,180.0 Z" />
	<path style="fill:#969696;" d="M 498.0,180.0 L 499.0,181.0 498.0,180.0 Z" />
	<path style="fill:#898989;" d="M 76.0,181.0 L 77.0,182.0 76.0,181.0 Z" />
	<path style="fill:#555555;" d="M 434.0,181.0 L 435.0,182.0 434.0,181.0 Z" />
	<path style="fill:#6b6b6b;" d="M 13.0,182.0 L 14.0,183.0 13.0,182.0 Z" />
	<path style="fill:#d2d2d2;" d="M 75.0,182.0 L 76.0,183.0 75.0,182.0 Z" />
	<path style="fill:#a7a7a7;" d="M 435.0,182.0 L 436.0,183.0 435.0,182.0 Z" />
	<path style="fill:#555555;" d="M 499.0,182.0 L 500.0,183.0 499.0,182.0 M 73.0,183.0 L 74.0,184.0 73.0,183.0 Z" />
	<path style="fill:#3b3b3b;" d="M 437.0,183.0 L 438.0,184.0 437.0,183.0 Z" />
	<path style="fill:#cacaca;" d="M 500.0,183.0 L 501.0,184.0 500.0,183.0 Z" />
	<path style="fill:#464646;" d="M 12.0,184.0 L 13.0,185.0 12.0,184.0 Z" />
	<path style="fill:#b8b8b8;" d="M 72.0,184.0 L 73.0,185.0 72.0,184.0 Z" />
	<path style="fill:#7a7a7a;" d="M 438.0,184.0 L 439.0,185.0 438.0,184.0 Z" />
	<path style="fill:#3b3b3b;" d="M 500.0,184.0 L 501.0,185.0 500.0,184.0 Z" />
	<path style="fill:#cacaca;" d="M 11.0,185.0 L 12.0,186.0 11.0,185.0 Z" />
	<path style="fill:#464646;" d="M 70.0,185.0 L 71.0,186.0 70.0,185.0 Z" />
	<path style="fill:#b8b8b8;" d="M 439.0,185.0 L 440.0,186.0 439.0,185.0 M 501.0,185.0 L 502.0,186.0 501.0,185.0 Z" />
	<path style="fill:#464646;" d="M 11.0,186.0 L 12.0,187.0 11.0,186.0 Z" />
	<path style="fill:#7a7a7a;" d="M 69.0,186.0 L 70.0,187.0 69.0,186.0 Z" />
	<path style="fill:#464646;" d="M 441.0,186.0 L 442.0,187.0 441.0,186.0 M 501.0,186.0 L 502.0,187.0 501.0,186.0 Z" />
	<path style="fill:#d2d2d2;" d="M 10.0,187.0 L 11.0,188.0 10.0,187.0 Z" />
	<path style="fill:#cacaca;" d="M 68.0,187.0 L 69.0,188.0 68.0,187.0 Z" />
	<path style="fill:#969696;" d="M 442.0,187.0 L 443.0,188.0 442.0,187.0 Z" />
	<path style="fill:#cacaca;" d="M 502.0,187.0 L 503.0,188.0 502.0,187.0 Z" />
	<path style="fill:#555555;" d="M 10.0,188.0 L 11.0,189.0 10.0,188.0 Z" />
	<path style="fill:#6b6b6b;" d="M 66.0,188.0 L 67.0,189.0 66.0,188.0 Z" />
	<path style="fill:#cacaca;" d="M 443.0,188.0 L 444.0,189.0 443.0,188.0 Z" />
	<path style="fill:#555555;" d="M 502.0,188.0 L 503.0,189.0 502.0,188.0 Z" />
	<path style="fill:#a7a7a7;" d="M 65.0,189.0 L 66.0,190.0 65.0,189.0 Z" />
	<path style="fill:#6b6b6b;" d="M 445.0,189.0 L 446.0,190.0 445.0,189.0 Z" />
	<path style="fill:#898989;" d="M 9.0,190.0 L 10.0,191.0 9.0,190.0 Z" />
	<path style="fill:#3b3b3b;" d="M 63.0,190.0 L 64.0,191.0 63.0,190.0 Z" />
	<path style="fill:#a7a7a7;" d="M 446.0,190.0 L 447.0,191.0 446.0,190.0 Z" />
	<path style="fill:#7a7a7a;" d="M 503.0,190.0 L 504.0,191.0 503.0,190.0 M 62.0,191.0 L 63.0,192.0 62.0,191.0 Z" />
	<path style="fill:#3b3b3b;" d="M 448.0,191.0 L 449.0,192.0 448.0,191.0 Z" />
	<path style="fill:#cacaca;" d="M 8.0,192.0 L 9.0,193.0 8.0,192.0 M 61.0,192.0 L 62.0,193.0 61.0,192.0 Z" />
	<path style="fill:#7a7a7a;" d="M 449.0,192.0 L 450.0,193.0 449.0,192.0 Z" />
	<path style="fill:#b8b8b8;" d="M 504.0,192.0 L 505.0,193.0 504.0,192.0 Z" />
	<path style="fill:#6b6b6b;" d="M 8.0,193.0 L 9.0,194.0 8.0,193.0 Z" />
	<path style="fill:#555555;" d="M 59.0,193.0 L 60.0,194.0 59.0,193.0 Z" />
	<path style="fill:#b8b8b8;" d="M 450.0,193.0 L 451.0,194.0 450.0,193.0 Z" />
	<path style="fill:#6b6b6b;" d="M 504.0,193.0 L 505.0,194.0 504.0,193.0 Z" />
	<path style="fill:#a7a7a7;" d="M 58.0,194.0 L 59.0,195.0 58.0,194.0 Z" />
	<path style="fill:#464646;" d="M 452.0,194.0 L 453.0,195.0 452.0,194.0 Z" />
	<path style="fill:#cacaca;" d="M 7.0,195.0 L 8.0,196.0 7.0,195.0 Z" />
	<path style="fill:#303030;" d="M 56.0,195.0 L 57.0,196.0 56.0,195.0 Z" />
	<path style="fill:#a7a7a7;" d="M 453.0,195.0 L 454.0,196.0 453.0,195.0 Z" />
	<path style="fill:#cacaca;" d="M 505.0,195.0 L 506.0,196.0 505.0,195.0 Z" />
	<path style="fill:#898989;" d="M 7.0,196.0 L 8.0,197.0 7.0,196.0 Z" />
	<path style="fill:#6b6b6b;" d="M 55.0,196.0 L 56.0,197.0 55.0,196.0 Z" />
	<path style="fill:#303030;" d="M 455.0,196.0 L 456.0,197.0 455.0,196.0 Z" />
	<path style="fill:#7a7a7a;" d="M 505.0,196.0 L 506.0,197.0 505.0,196.0 Z" />
	<path style="fill:#3b3b3b;" d="M 7.0,197.0 L 8.0,198.0 7.0,197.0 Z" />
	<path style="fill:#b8b8b8;" d="M 54.0,197.0 L 55.0,198.0 54.0,197.0 Z" />
	<path style="fill:#6b6b6b;" d="M 456.0,197.0 L 457.0,198.0 456.0,197.0 Z" />
	<path style="fill:#303030;" d="M 505.0,197.0 L 506.0,198.0 505.0,197.0 Z" />
	<path style="fill:#a7a7a7;" d="M 457.0,198.0 L 458.0,199.0 457.0,198.0 Z" />
	<path style="fill:#cacaca;" d="M 6.0,199.0 L 7.0,200.0 6.0,199.0 M 458.0,199.0 L 459.0,200.0 458.0,199.0 Z" />
	<path style="fill:#b8b8b8;" d="M 506.0,199.0 L 507.0,200.0 506.0,199.0 Z" />
	<path style="fill:#898989;" d="M 6.0,200.0 L 7.0,201.0 6.0,200.0 Z" />
	<path style="fill:#7a7a7a;" d="M 506.0,200.0 L 507.0,201.0 506.0,200.0 Z" />
	<path style="fill:#303030;" d="M 6.3333,201.667 C 6.2778,201.722 6.2222,202.778 6.6667,202.333 6.7223,202.278 6.7777,201.222 6.3333,201.667 Z" />
	<path style="fill:#a7a7a7;" d="M 50.0,201.0 L 51.0,202.0 50.0,201.0 Z" />
	<path style="fill:#cacaca;" d="M 460.0,201.0 L 461.0,202.0 460.0,201.0 Z" />
	<path style="fill:#111111;" d="M 506.333,201.667 C 506.278,201.722 506.222,202.778 506.667,202.333 506.722,202.278 506.778,201.222 506.333,201.667 Z" />
	<path style="fill:#555555;" d="M 49.0,202.0 L 50.0,203.0 49.0,202.0 Z" />
	<path style="fill:#969696;" d="M 461.0,202.0 L 462.0,203.0 461.0,202.0 Z" />
	<path style="fill:#464646;" d="M 462.0,203.0 L 463.0,204.0 462.0,203.0 Z" />
	<path style="fill:#b8b8b8;" d="M 5.0,204.0 L 5.0,207.0 6.0,207.0 C 5.7488,205.548 5.6848,205.248 5.0,204.0 Z" />
	<path style="fill:#6b6b6b;" d="M 48.0,204.0 L 49.0,205.0 48.0,204.0 Z" />
	<path style="fill:#a7a7a7;" d="M 507.0,204.0 L 507.0,207.0 508.0,207.0 C 507.749,205.548 507.685,205.248 507.0,204.0 Z" />
	<path style="fill:#6b6b6b;" d="M 463.0,205.0 L 464.0,206.0 463.0,205.0 Z" />
	<path style="fill:#464646;" d="M 47.0,206.0 L 48.0,207.0 47.0,206.0 Z" />
	<path style="fill:#555555;" d="M 5.0,207.0 L 5.0,488.0 6.0,488.0 6.0,290.0 6.0,233.0 C 6.0,225.256 8.0042,214.159 5.0,207.0 Z" />
	<path style="fill:#898989;" d="M 47.0,207.0 L 48.0,208.0 47.0,207.0 Z" />
	<path style="fill:#3b3b3b;" d="M 464.0,207.0 L 465.0,208.0 464.0,207.0 Z" />
	<path style="fill:#464646;" d="M 507.0,207.0 L 507.0,487.0 508.0,487.0 508.0,289.0 508.0,232.0 C 508.0,224.52 509.903,213.919 507.0,207.0 Z" />
	<path style="fill:#cacaca;" d="M 47.0,208.0 L 48.0,209.0 47.0,208.0 Z" />
	<path style="fill:#898989;" d="M 464.0,208.0 L 465.0,209.0 464.0,208.0 Z" />
	<path style="fill:#cacaca;" d="M 464.0,209.0 L 465.0,210.0 464.0,209.0 Z" />
	<path style="fill:#111111;" d="M 46.0,211.0 L 46.0,464.0 47.0,464.0 47.0,286.0 47.0,234.0 C 47.0,227.049 48.7007,217.436 46.0,211.0 M 465.0,212.0 L 465.0,465.0 466.0,465.0 466.0,287.0 466.0,235.0 C 466.0,228.049 467.701,218.436 465.0,212.0 Z" />
	<path style="fill:#cacaca;" d="M 248.667,296.333 C 248.222,296.778 249.278,296.722 249.333,296.667 249.778,296.222 248.722,296.278 248.667,296.333 Z" />
	<path style="fill:#969696;" d="M 250.0,296.0 L 250.0,297.0 260.0,297.0 C 256.837,295.673 253.414,296.0 250.0,296.0 Z" />
	<path style="fill:#b8b8b8;" d="M 260.0,296.0 L 260.0,297.0 263.0,297.0 C 261.752,296.315 261.452,296.251 260.0,296.0 Z" />
	<path style="fill:#cacaca;" d="M 241.0,297.0 L 242.0,298.0 241.0,297.0 Z" />
	<path style="fill:#7a7a7a;" d="M 242.0,297.0 L 242.0,298.0 245.0,298.0 C 243.752,297.315 243.452,297.251 242.0,297.0 Z" />
	<path style="fill:#555555;" d="M 266.0,297.0 L 266.0,298.0 269.0,298.0 C 267.752,297.315 267.452,297.251 266.0,297.0 Z" />
	<path style="fill:#969696;" d="M 269.0,297.0 L 270.0,298.0 269.0,297.0 Z" />
	<path style="fill:#cacaca;" d="M 270.0,297.0 L 271.0,298.0 270.0,297.0 M 236.0,298.0 L 237.0,299.0 236.0,298.0 Z" />
	<path style="fill:#898989;" d="M 237.0,298.0 L 238.0,299.0 237.0,298.0 Z" />
	<path style="fill:#555555;" d="M 238.0,298.0 L 239.0,299.0 238.0,298.0 M 273.0,298.0 L 274.0,299.0 273.0,298.0 Z" />
	<path style="fill:#898989;" d="M 274.0,298.0 L 275.0,299.0 274.0,298.0 Z" />
	<path style="fill:#cacaca;" d="M 275.0,298.0 L 276.0,299.0 275.0,298.0 M 232.0,299.0 L 233.0,300.0 232.0,299.0 Z" />
	<path style="fill:#898989;" d="M 233.0,299.0 L 234.0,300.0 233.0,299.0 Z" />
	<path style="fill:#3b3b3b;" d="M 234.0,299.0 L 235.0,300.0 234.0,299.0 M 277.0,299.0 L 278.0,300.0 277.0,299.0 Z" />
	<path style="fill:#898989;" d="M 278.0,299.0 L 279.0,300.0 278.0,299.0 Z" />
	<path style="fill:#cacaca;" d="M 279.0,299.0 L 280.0,300.0 279.0,299.0 Z" />
	<path style="fill:#b8b8b8;" d="M 229.0,300.0 L 230.0,301.0 229.0,300.0 Z" />
	<path style="fill:#555555;" d="M 230.0,300.0 L 231.0,301.0 230.0,300.0 Z" />
	<path style="fill:#6b6b6b;" d="M 281.0,300.0 L 282.0,301.0 281.0,300.0 Z" />
	<path style="fill:#b8b8b8;" d="M 282.0,300.0 L 283.0,301.0 282.0,300.0 M 226.0,301.0 L 227.0,302.0 226.0,301.0 Z" />
	<path style="fill:#555555;" d="M 227.0,301.0 L 228.0,302.0 227.0,301.0 Z" />
	<path style="fill:#6b6b6b;" d="M 284.0,301.0 L 285.0,302.0 284.0,301.0 Z" />
	<path style="fill:#b8b8b8;" d="M 285.0,301.0 L 286.0,302.0 285.0,301.0 Z" />
	<path style="fill:#898989;" d="M 224.0,302.0 L 225.0,303.0 224.0,302.0 Z" />
	<path style="fill:#7a7a7a;" d="M 287.0,302.0 L 288.0,303.0 287.0,302.0 Z" />
	<path style="fill:#b8b8b8;" d="M 221.0,303.0 L 222.0,304.0 221.0,303.0 Z" />
	<path style="fill:#464646;" d="M 222.0,303.0 L 223.0,304.0 222.0,303.0 M 289.0,303.0 L 290.0,304.0 289.0,303.0 Z" />
	<path style="fill:#b8b8b8;" d="M 290.0,303.0 L 291.0,304.0 290.0,303.0 Z" />
	<path style="fill:#a7a7a7;" d="M 219.0,304.0 L 220.0,305.0 219.0,304.0 Z" />
	<path style="fill:#303030;" d="M 220.0,304.0 L 221.0,305.0 220.0,304.0 Z" />
	<path style="fill:#969696;" d="M 292.0,304.0 L 293.0,305.0 292.0,304.0 M 217.0,305.0 L 218.0,306.0 217.0,305.0 M 294.0,305.0 L 295.0,306.0 294.0,305.0 Z" />
	<path style="fill:#a7a7a7;" d="M 215.0,306.0 L 216.0,307.0 215.0,306.0 Z" />
	<path style="fill:#969696;" d="M 296.0,306.0 L 297.0,307.0 296.0,306.0 Z" />
	<path style="fill:#a7a7a7;" d="M 213.0,307.0 L 214.0,308.0 213.0,307.0 Z" />
	<path style="fill:#b8b8b8;" d="M 298.0,307.0 L 299.0,308.0 298.0,307.0 Z" />
	<path style="fill:#464646;" d="M 212.0,308.0 L 213.0,309.0 212.0,308.0 M 299.0,308.0 L 300.0,309.0 299.0,308.0 Z" />
	<path style="fill:#d2d2d2;" d="M 300.0,308.0 L 301.0,309.0 300.0,308.0 Z" />
	<path style="fill:#6b6b6b;" d="M 210.0,309.0 L 211.0,310.0 210.0,309.0 Z" />
	<path style="fill:#7a7a7a;" d="M 301.0,309.0 L 302.0,310.0 301.0,309.0 Z" />
	<path style="fill:#cacaca;" d="M 208.0,310.0 L 209.0,311.0 208.0,310.0 Z" />
	<path style="fill:#b8b8b8;" d="M 303.0,310.0 L 304.0,311.0 303.0,310.0 Z" />
	<path style="fill:#555555;" d="M 207.0,311.0 L 208.0,312.0 207.0,311.0 Z" />
	<path style="fill:#6b6b6b;" d="M 304.0,311.0 L 305.0,312.0 304.0,311.0 Z" />
	<path style="fill:#cacaca;" d="M 205.0,312.0 L 206.0,313.0 205.0,312.0 M 306.0,312.0 L 307.0,313.0 306.0,312.0 Z" />
	<path style="fill:#7a7a7a;" d="M 204.0,313.0 L 205.0,314.0 204.0,313.0 M 307.0,313.0 L 308.0,314.0 307.0,313.0 Z" />
	<path style="fill:#464646;" d="M 203.0,314.0 L 204.0,315.0 203.0,314.0 Z" />
	<path style="fill:#3b3b3b;" d="M 308.0,314.0 L 309.0,315.0 308.0,314.0 Z" />
	<path style="fill:#cacaca;" d="M 201.0,315.0 L 202.0,316.0 201.0,315.0 M 310.0,315.0 L 311.0,316.0 310.0,315.0 Z" />
	<path style="fill:#969696;" d="M 200.0,316.0 L 201.0,317.0 200.0,316.0 M 311.0,316.0 L 312.0,317.0 311.0,316.0 Z" />
	<path style="fill:#7a7a7a;" d="M 199.0,317.0 L 200.0,318.0 199.0,317.0 Z" />
	<path style="fill:#6b6b6b;" d="M 312.0,317.0 L 313.0,318.0 312.0,317.0 Z" />
	<path style="fill:#555555;" d="M 198.0,318.0 L 199.0,319.0 198.0,318.0 M 313.0,318.0 L 314.0,319.0 313.0,318.0 Z" />
	<path style="fill:#3b3b3b;" d="M 197.0,319.0 L 198.0,320.0 197.0,319.0 M 314.0,319.0 L 315.0,320.0 314.0,319.0 Z" />
	<path style="fill:#303030;" d="M 196.0,320.0 L 197.0,321.0 196.0,320.0 M 315.0,320.0 L 316.0,321.0 315.0,320.0 M 195.0,321.0 L 196.0,322.0 195.0,321.0 M 193.0,323.0 L 194.0,324.0 193.0,323.0 M 192.0,324.0 L 193.0,325.0 192.0,324.0 M 319.0,324.0 L 320.0,325.0 319.0,324.0 Z" />
	<path style="fill:#3b3b3b;" d="M 191.0,325.0 L 192.0,326.0 191.0,325.0 M 320.0,325.0 L 321.0,326.0 320.0,325.0 Z" />
	<path style="fill:#555555;" d="M 190.0,326.0 L 191.0,327.0 190.0,326.0 M 321.0,326.0 L 322.0,327.0 321.0,326.0 Z" />
	<path style="fill:#7a7a7a;" d="M 189.0,327.0 L 190.0,328.0 189.0,327.0 M 322.0,327.0 L 323.0,328.0 322.0,327.0 Z" />
	<path style="fill:#969696;" d="M 188.0,328.0 L 189.0,329.0 188.0,328.0 M 323.0,328.0 L 324.0,329.0 323.0,328.0 Z" />
	<path style="fill:#cacaca;" d="M 187.0,329.0 L 188.0,330.0 187.0,329.0 M 324.0,329.0 L 325.0,330.0 324.0,329.0 Z" />
	<path style="fill:#3b3b3b;" d="M 186.0,331.0 L 187.0,332.0 186.0,331.0 Z" />
	<path style="fill:#464646;" d="M 325.0,331.0 L 326.0,332.0 325.0,331.0 Z" />
	<path style="fill:#7a7a7a;" d="M 185.0,332.0 L 186.0,333.0 185.0,332.0 M 326.0,332.0 L 327.0,333.0 326.0,332.0 Z" />
	<path style="fill:#cacaca;" d="M 184.0,333.0 L 185.0,334.0 184.0,333.0 M 327.0,333.0 L 328.0,334.0 327.0,333.0 Z" />
	<path style="fill:#555555;" d="M 183.0,335.0 L 184.0,336.0 183.0,335.0 Z" />
	<path style="fill:#6b6b6b;" d="M 328.0,335.0 L 329.0,336.0 328.0,335.0 Z" />
	<path style="fill:#b8b8b8;" d="M 182.0,336.0 L 183.0,337.0 182.0,336.0 M 329.0,336.0 L 330.0,337.0 329.0,336.0 Z" />
	<path style="fill:#6b6b6b;" d="M 181.0,338.0 L 182.0,339.0 181.0,338.0 M 247.667,338.333 C 247.222,338.778 248.278,338.722 248.333,338.667 248.778,338.222 247.722,338.278 247.667,338.333 Z" />
	<path style="fill:#b8b8b8;" d="M 249.0,338.0 L 249.0,339.0 253.0,339.0 C 251.494,338.317 250.685,338.174 249.0,338.0 Z" />
	<path style="fill:#d2d2d2;" d="M 253.0,338.0 L 253.0,339.0 257.0,339.0 C 255.494,338.317 254.685,338.174 253.0,338.0 Z" />
	<path style="fill:#b8b8b8;" d="M 257.0,338.0 L 257.0,339.0 260.0,339.0 C 258.752,338.315 258.452,338.251 257.0,338.0 Z" />
	<path style="fill:#555555;" d="M 260.0,338.0 L 260.0,339.0 263.0,339.0 C 261.752,338.315 261.452,338.251 260.0,338.0 Z" />
	<path style="fill:#7a7a7a;" d="M 330.0,338.0 L 331.0,339.0 330.0,338.0 Z" />
	<path style="fill:#d2d2d2;" d="M 180.0,339.0 L 181.0,340.0 180.0,339.0 Z" />
	<path style="fill:#6b6b6b;" d="M 243.0,339.0 L 244.0,340.0 243.0,339.0 Z" />
	<path style="fill:#a7a7a7;" d="M 244.0,339.0 L 245.0,340.0 244.0,339.0 M 265.0,339.0 L 266.0,340.0 265.0,339.0 Z" />
	<path style="fill:#6b6b6b;" d="M 266.0,339.0 L 267.0,340.0 266.0,339.0 Z" />
	<path style="fill:#464646;" d="M 180.0,340.0 L 181.0,341.0 180.0,340.0 Z" />
	<path style="fill:#3b3b3b;" d="M 239.0,340.0 L 240.0,341.0 239.0,340.0 Z" />
	<path style="fill:#969696;" d="M 240.0,340.0 L 241.0,341.0 240.0,340.0 Z" />
	<path style="fill:#898989;" d="M 269.0,340.0 L 270.0,341.0 269.0,340.0 Z" />
	<path style="fill:#303030;" d="M 270.0,340.0 L 271.0,341.0 270.0,340.0 Z" />
	<path style="fill:#464646;" d="M 331.0,340.0 L 332.0,341.0 331.0,340.0 Z" />
	<path style="fill:#a7a7a7;" d="M 179.0,341.0 L 180.0,342.0 179.0,341.0 Z" />
	<path style="fill:#7a7a7a;" d="M 237.0,341.0 L 238.0,342.0 237.0,341.0 Z" />
	<path style="fill:#d2d2d2;" d="M 271.0,341.0 L 272.0,342.0 271.0,341.0 Z" />
	<path style="fill:#7a7a7a;" d="M 272.0,341.0 L 273.0,342.0 272.0,341.0 Z" />
	<path style="fill:#b8b8b8;" d="M 332.0,341.0 L 333.0,342.0 332.0,341.0 Z" />
	<path style="fill:#969696;" d="M 235.0,342.0 L 236.0,343.0 235.0,342.0 Z" />
	<path style="fill:#898989;" d="M 274.0,342.0 L 275.0,343.0 274.0,342.0 Z" />
	<path style="fill:#969696;" d="M 178.0,343.0 L 179.0,344.0 178.0,343.0 Z" />
	<path style="fill:#a7a7a7;" d="M 233.0,343.0 L 234.0,344.0 233.0,343.0 Z" />
	<path style="fill:#969696;" d="M 276.0,343.0 L 277.0,344.0 276.0,343.0 M 333.0,343.0 L 334.0,344.0 333.0,343.0 Z" />
	<path style="fill:#7a7a7a;" d="M 231.0,344.0 L 232.0,345.0 231.0,344.0 M 278.0,344.0 L 279.0,345.0 278.0,344.0 Z" />
	<path style="fill:#969696;" d="M 177.0,345.0 L 178.0,346.0 177.0,345.0 Z" />
	<path style="fill:#555555;" d="M 229.0,345.0 L 230.0,346.0 229.0,345.0 Z" />
	<path style="fill:#d2d2d2;" d="M 279.0,345.0 L 280.0,346.0 279.0,345.0 Z" />
	<path style="fill:#3b3b3b;" d="M 280.0,345.0 L 281.0,346.0 280.0,345.0 Z" />
	<path style="fill:#969696;" d="M 334.0,345.0 L 335.0,346.0 334.0,345.0 M 228.0,346.0 L 229.0,347.0 228.0,346.0 Z" />
	<path style="fill:#7a7a7a;" d="M 281.0,346.0 L 282.0,347.0 281.0,346.0 Z" />
	<path style="fill:#969696;" d="M 176.0,347.0 L 177.0,348.0 176.0,347.0 Z" />
	<path style="fill:#d2d2d2;" d="M 227.0,347.0 L 228.0,348.0 227.0,347.0 Z" />
	<path style="fill:#cacaca;" d="M 282.0,347.0 L 283.0,348.0 282.0,347.0 Z" />
	<path style="fill:#a7a7a7;" d="M 335.0,347.0 L 336.0,348.0 335.0,347.0 Z" />
	<path style="fill:#303030;" d="M 176.0,348.0 L 177.0,349.0 176.0,348.0 Z" />
	<path style="fill:#555555;" d="M 225.0,348.0 L 226.0,349.0 225.0,348.0 Z" />
	<path style="fill:#464646;" d="M 284.0,348.0 L 285.0,349.0 284.0,348.0 Z" />
	<path style="fill:#303030;" d="M 335.0,348.0 L 336.0,349.0 335.0,348.0 Z" />
	<path style="fill:#b8b8b8;" d="M 175.0,349.0 L 176.0,350.0 175.0,349.0 Z" />
	<path style="fill:#6b6b6b;" d="M 224.0,349.0 L 225.0,350.0 224.0,349.0 Z" />
	<path style="fill:#555555;" d="M 285.0,349.0 L 286.0,350.0 285.0,349.0 Z" />
	<path style="fill:#b8b8b8;" d="M 336.0,349.0 L 337.0,350.0 336.0,349.0 Z" />
	<path style="fill:#464646;" d="M 175.0,350.0 L 176.0,351.0 175.0,350.0 Z" />
	<path style="fill:#898989;" d="M 223.0,350.0 L 224.0,351.0 223.0,350.0 Z" />
	<path style="fill:#6b6b6b;" d="M 286.0,350.0 L 287.0,351.0 286.0,350.0 Z" />
	<path style="fill:#464646;" d="M 336.0,350.0 L 337.0,351.0 336.0,350.0 Z" />
	<path style="fill:#969696;" d="M 222.0,351.0 L 223.0,352.0 222.0,351.0 Z" />
	<path style="fill:#7a7a7a;" d="M 287.0,351.0 L 288.0,352.0 287.0,351.0 M 174.0,352.0 L 175.0,353.0 174.0,352.0 Z" />
	<path style="fill:#898989;" d="M 221.0,352.0 L 222.0,353.0 221.0,352.0 Z" />
	<path style="fill:#6b6b6b;" d="M 288.0,352.0 L 289.0,353.0 288.0,352.0 Z" />
	<path style="fill:#7a7a7a;" d="M 337.0,352.0 L 338.0,353.0 337.0,352.0 Z" />
	<path style="fill:#6b6b6b;" d="M 220.0,353.0 L 221.0,354.0 220.0,353.0 Z" />
	<path style="fill:#555555;" d="M 289.0,353.0 L 290.0,354.0 289.0,353.0 Z" />
	<path style="fill:#b8b8b8;" d="M 173.0,354.0 L 174.0,355.0 173.0,354.0 Z" />
	<path style="fill:#555555;" d="M 219.0,354.0 L 220.0,355.0 219.0,354.0 Z" />
	<path style="fill:#3b3b3b;" d="M 290.0,354.0 L 291.0,355.0 290.0,354.0 Z" />
	<path style="fill:#b8b8b8;" d="M 338.0,354.0 L 339.0,355.0 338.0,354.0 Z" />
	<path style="fill:#555555;" d="M 173.0,355.0 L 174.0,356.0 173.0,355.0 Z" />
	<path style="fill:#303030;" d="M 218.0,355.0 L 219.0,356.0 218.0,355.0 Z" />
	<path style="fill:#6b6b6b;" d="M 338.0,355.0 L 339.0,356.0 338.0,355.0 Z" />
	<path style="fill:#b8b8b8;" d="M 291.0,356.0 L 292.0,357.0 291.0,356.0 Z" />
	<path style="fill:#a7a7a7;" d="M 172.0,357.0 L 173.0,358.0 172.0,357.0 M 217.0,357.0 L 218.0,358.0 217.0,357.0 Z" />
	<path style="fill:#7a7a7a;" d="M 292.0,357.0 L 293.0,358.0 292.0,357.0 Z" />
	<path style="fill:#b8b8b8;" d="M 339.0,357.0 L 340.0,358.0 339.0,357.0 Z" />
	<path style="fill:#555555;" d="M 172.0,358.0 L 173.0,359.0 172.0,358.0 M 216.0,358.0 L 217.0,359.0 216.0,358.0 Z" />
	<path style="fill:#303030;" d="M 293.0,358.0 L 294.0,359.0 293.0,358.0 Z" />
	<path style="fill:#6b6b6b;" d="M 339.0,358.0 L 340.0,359.0 339.0,358.0 Z" />
	<path style="fill:#cacaca;" d="M 293.0,359.0 L 294.0,360.0 293.0,359.0 M 171.0,360.0 L 172.0,361.0 171.0,360.0 Z" />
	<path style="fill:#898989;" d="M 215.0,360.0 L 216.0,361.0 215.0,360.0 Z" />
	<path style="fill:#6b6b6b;" d="M 294.0,360.0 L 295.0,361.0 294.0,360.0 Z" />
	<path style="fill:#d2d2d2;" d="M 340.0,360.0 L 341.0,361.0 340.0,360.0 Z" />
	<path style="fill:#7a7a7a;" d="M 171.0,361.0 L 172.0,362.0 171.0,361.0 Z" />
	<path style="fill:#898989;" d="M 340.0,361.0 L 341.0,362.0 340.0,361.0 Z" />
	<path style="fill:#3b3b3b;" d="M 171.0,362.0 L 172.0,363.0 171.0,362.0 Z" />
	<path style="fill:#b8b8b8;" d="M 214.0,362.0 L 215.0,363.0 214.0,362.0 Z" />
	<path style="fill:#898989;" d="M 295.0,362.0 L 296.0,363.0 295.0,362.0 Z" />
	<path style="fill:#464646;" d="M 340.0,362.0 L 341.0,363.0 340.0,362.0 Z" />
	<path style="fill:#cacaca;" d="M 170.0,364.0 L 171.0,365.0 170.0,364.0 Z" />
	<path style="fill:#a7a7a7;" d="M 213.0,364.0 L 214.0,365.0 213.0,364.0 Z" />
	<path style="fill:#7a7a7a;" d="M 296.0,364.0 L 297.0,365.0 296.0,364.0 Z" />
	<path style="fill:#cacaca;" d="M 341.0,364.0 L 342.0,365.0 341.0,364.0 Z" />
	<path style="fill:#898989;" d="M 170.0,365.0 L 171.0,366.0 170.0,365.0 M 341.0,365.0 L 342.0,366.0 341.0,365.0 Z" />
	<path style="fill:#555555;" d="M 170.0,366.0 L 171.0,367.0 170.0,366.0 Z" />
	<path style="fill:#898989;" d="M 212.0,366.0 L 213.0,367.0 212.0,366.0 Z" />
	<path style="fill:#6b6b6b;" d="M 297.0,366.0 L 298.0,367.0 297.0,366.0 Z" />
	<path style="fill:#555555;" d="M 341.0,366.0 L 342.0,367.0 341.0,366.0 Z" />
	<path style="fill:#cacaca;" d="M 297.0,367.0 L 298.0,368.0 297.0,367.0 Z" />
	<path style="fill:#464646;" d="M 211.0,368.0 L 212.0,369.0 211.0,368.0 Z" />
	<path style="fill:#cacaca;" d="M 169.0,369.0 L 170.0,370.0 169.0,369.0 Z" />
	<path style="fill:#a7a7a7;" d="M 211.0,369.0 L 212.0,370.0 211.0,369.0 Z" />
	<path style="fill:#7a7a7a;" d="M 298.0,369.0 L 299.0,370.0 298.0,369.0 Z" />
	<path style="fill:#cacaca;" d="M 342.0,369.0 L 343.0,370.0 342.0,369.0 Z" />
	<path style="fill:#6b6b6b;" d="M 169.0,370.0 L 169.0,373.0 170.0,373.0 C 169.749,371.548 169.685,371.248 169.0,370.0 Z" />
	<path style="fill:#d2d2d2;" d="M 298.0,370.0 L 299.0,371.0 298.0,370.0 Z" />
	<path style="fill:#7a7a7a;" d="M 342.0,370.0 L 342.0,373.0 343.0,373.0 C 342.749,371.548 342.685,371.248 342.0,370.0 Z" />
	<path style="fill:#3b3b3b;" d="M 210.0,371.0 L 211.0,372.0 210.0,371.0 Z" />
	<path style="fill:#7a7a7a;" d="M 210.0,372.0 L 211.0,373.0 210.0,372.0 Z" />
	<path style="fill:#555555;" d="M 299.0,372.0 L 300.0,373.0 299.0,372.0 Z" />
	<path style="fill:#b8b8b8;" d="M 210.0,373.0 L 211.0,374.0 210.0,373.0 Z" />
	<path style="fill:#969696;" d="M 299.0,373.0 L 300.0,374.0 299.0,373.0 Z" />
	<path style="fill:#cacaca;" d="M 168.333,376.667 C 168.278,376.722 168.222,377.778 168.667,377.333 168.722,377.278 168.778,376.222 168.333,376.667 Z" />
	<path style="fill:#6b6b6b;" d="M 209.333,376.667 C 209.278,376.722 209.222,377.778 209.667,377.333 209.722,377.278 209.778,376.222 209.333,376.667 Z" />
	<path style="fill:#d2d2d2;" d="M 343.333,376.667 C 343.278,376.722 343.222,377.778 343.667,377.333 343.722,377.278 343.778,376.222 343.333,376.667 Z" />
	<path style="fill:#7a7a7a;" d="M 300.333,377.667 C 300.278,377.722 300.222,378.778 300.667,378.333 300.722,378.278 300.778,377.222 300.333,377.667 Z" />
	<path style="fill:#898989;" d="M 168.0,378.0 L 168.0,464.0 169.0,464.0 169.0,405.0 C 169.0,396.993 171.105,385.4 168.0,378.0 Z" />
	<path style="fill:#b8b8b8;" d="M 209.333,378.667 C 209.278,378.722 209.222,379.778 209.667,379.333 209.722,379.278 209.778,378.222 209.333,378.667 Z" />
	<path style="fill:#969696;" d="M 343.0,378.0 L 343.0,383.0 344.0,383.0 C 343.912,381.036 343.779,379.769 343.0,378.0 Z" />
	<path style="fill:#a7a7a7;" d="M 300.0,379.0 L 300.0,382.0 301.0,382.0 C 300.749,380.548 300.685,380.248 300.0,379.0 Z" />
	<path style="fill:#d2d2d2;" d="M 209.0,380.0 L 209.0,383.0 210.0,383.0 C 209.749,381.548 209.685,381.248 209.0,380.0 Z" />
	<path style="fill:#cacaca;" d="M 300.0,382.0 L 300.0,487.0 301.0,487.0 301.0,414.0 C 301.0,404.678 303.607,390.596 300.0,382.0 Z" />
	<path style="fill:#efefef;" d="M 209.0,383.0 L 209.0,486.0 210.0,486.0 210.0,414.0 C 210.0,404.94 212.507,391.357 209.0,383.0 Z" />
	<path style="fill:#898989;" d="M 343.0,383.0 L 343.0,465.0 344.0,465.0 344.0,408.0 C 344.0,400.52 345.903,389.919 343.0,383.0 Z" />
	<path style="fill:#111111;" d="M 343.0,465.0 L 343.0,466.0 465.0,466.0 C 455.211,461.892 438.634,465.0 428.0,465.0 L 343.0,465.0 Z" />
	<path style="fill:#6b6b6b;" d="M 507.0,487.0 L 508.0,488.0 507.0,487.0 Z" />
	<path style="fill:#cacaca;" d="M 5.3333,488.667 C 5.2778,488.722 5.2222,489.778 5.6667,489.333 5.7222,489.278 5.7778,488.222 5.3333,488.667 Z" />
	<path style="fill:#555555;" d="M 208.333,488.667 C 208.278,488.722 208.222,489.778 208.667,489.333 208.722,489.278 208.778,488.222 208.333,488.667 Z" />
	<path style="fill:#969696;" d="M 507.0,488.0 L 508.0,489.0 507.0,488.0 Z" />
	<path style="fill:#3b3b3b;" d="M 301.0,489.0 L 302.0,490.0 301.0,489.0 Z" />
	<path style="fill:#969696;" d="M 208.0,490.0 L 209.0,491.0 208.0,490.0 Z" />
	<path style="fill:#7a7a7a;" d="M 301.0,490.0 L 302.0,491.0 301.0,490.0 Z" />
	<path style="fill:#464646;" d="M 6.0,491.0 L 7.0,492.0 6.0,491.0 Z" />
	<path style="fill:#b8b8b8;" d="M 301.0,491.0 L 302.0,492.0 301.0,491.0 Z" />
	<path style="fill:#7a7a7a;" d="M 506.0,491.0 L 507.0,492.0 506.0,491.0 Z" />
	<path style="fill:#969696;" d="M 6.0,492.0 L 7.0,493.0 6.0,492.0 Z" />
	<path style="fill:#3b3b3b;" d="M 207.0,492.0 L 208.0,493.0 207.0,492.0 Z" />
	<path style="fill:#969696;" d="M 207.0,493.0 L 208.0,494.0 207.0,493.0 Z" />
	<path style="fill:#7a7a7a;" d="M 302.0,493.0 L 303.0,494.0 302.0,493.0 Z" />
	<path style="fill:#555555;" d="M 505.0,493.0 L 506.0,494.0 505.0,493.0 Z" />
	<path style="fill:#6b6b6b;" d="M 7.0,494.0 L 8.0,495.0 7.0,494.0 Z" />
	<path style="fill:#d2d2d2;" d="M 505.0,494.0 L 506.0,495.0 505.0,494.0 Z" />
	<path style="fill:#898989;" d="M 206.0,495.0 L 207.0,496.0 206.0,495.0 Z" />
	<path style="fill:#6b6b6b;" d="M 303.0,495.0 L 304.0,496.0 303.0,495.0 M 504.0,495.0 L 505.0,496.0 504.0,495.0 Z" />
	<path style="fill:#898989;" d="M 8.0,496.0 L 9.0,497.0 8.0,496.0 Z" />
	<path style="fill:#303030;" d="M 205.0,496.0 L 206.0,497.0 205.0,496.0 M 9.0,497.0 L 10.0,498.0 9.0,497.0 Z" />
	<path style="fill:#cacaca;" d="M 205.0,497.0 L 206.0,498.0 205.0,497.0 Z" />
	<path style="fill:#a7a7a7;" d="M 304.0,497.0 L 305.0,498.0 304.0,497.0 Z" />
	<path style="fill:#b8b8b8;" d="M 503.0,497.0 L 504.0,498.0 503.0,497.0 Z" />
	<path style="fill:#898989;" d="M 204.0,498.0 L 205.0,499.0 204.0,498.0 Z" />
	<path style="fill:#6b6b6b;" d="M 305.0,498.0 L 306.0,499.0 305.0,498.0 Z" />
	<path style="fill:#969696;" d="M 502.0,498.0 L 503.0,499.0 502.0,498.0 Z" />
	<path style="fill:#cacaca;" d="M 10.0,499.0 L 11.0,500.0 10.0,499.0 Z" />
	<path style="fill:#6b6b6b;" d="M 203.0,499.0 L 204.0,500.0 203.0,499.0 Z" />
	<path style="fill:#464646;" d="M 306.0,499.0 L 307.0,500.0 306.0,499.0 Z" />
	<path style="fill:#7a7a7a;" d="M 501.0,499.0 L 502.0,500.0 501.0,499.0 Z" />
	<path style="fill:#b8b8b8;" d="M 11.0,500.0 L 12.0,501.0 11.0,500.0 Z" />
	<path style="fill:#555555;" d="M 202.0,500.0 L 203.0,501.0 202.0,500.0 Z" />
	<path style="fill:#3b3b3b;" d="M 307.0,500.0 L 308.0,501.0 307.0,500.0 Z" />
	<path style="fill:#7a7a7a;" d="M 500.0,500.0 L 501.0,501.0 500.0,500.0 Z" />
	<path style="fill:#b8b8b8;" d="M 12.0,501.0 L 13.0,502.0 12.0,501.0 Z" />
	<path style="fill:#6b6b6b;" d="M 201.0,501.0 L 202.0,502.0 201.0,501.0 Z" />
	<path style="fill:#555555;" d="M 308.0,501.0 L 309.0,502.0 308.0,501.0 Z" />
	<path style="fill:#969696;" d="M 499.0,501.0 L 500.0,502.0 499.0,501.0 Z" />
	<path style="fill:#3b3b3b;" d="M 14.0,502.0 L 15.0,503.0 14.0,502.0 Z" />
	<path style="fill:#a7a7a7;" d="M 200.0,502.0 L 201.0,503.0 200.0,502.0 Z" />
	<path style="fill:#969696;" d="M 309.0,502.0 L 310.0,503.0 309.0,502.0 Z" />
	<path style="fill:#cacaca;" d="M 498.0,502.0 L 499.0,503.0 498.0,502.0 Z" />
	<path style="fill:#898989;" d="M 15.0,503.0 L 16.0,504.0 15.0,503.0 Z" />
	<path style="fill:#555555;" d="M 198.0,503.0 L 199.0,504.0 198.0,503.0 Z" />
	<path style="fill:#d2d2d2;" d="M 310.0,503.0 L 311.0,504.0 310.0,503.0 Z" />
	<path style="fill:#3b3b3b;" d="M 311.0,503.0 L 312.0,504.0 311.0,503.0 Z" />
	<path style="fill:#7a7a7a;" d="M 496.0,503.0 L 497.0,504.0 496.0,503.0 M 17.0,504.0 L 18.0,505.0 17.0,504.0 Z" />
	<path style="fill:#464646;" d="M 196.0,504.0 L 197.0,505.0 196.0,504.0 Z" />
	<path style="fill:#b8b8b8;" d="M 197.0,504.0 L 198.0,505.0 197.0,504.0 Z" />
	<path style="fill:#a7a7a7;" d="M 312.0,504.0 L 313.0,505.0 312.0,504.0 Z" />
	<path style="fill:#303030;" d="M 313.0,504.0 L 314.0,505.0 313.0,504.0 Z" />
	<path style="fill:#6b6b6b;" d="M 494.0,504.0 L 495.0,505.0 494.0,504.0 Z" />
	<path style="fill:#969696;" d="M 19.0,505.0 L 20.0,506.0 19.0,505.0 Z" />
	<path style="fill:#464646;" d="M 20.0,505.0 L 21.0,506.0 20.0,505.0 Z" />
	<path style="fill:#7a7a7a;" d="M 194.0,505.0 L 195.0,506.0 194.0,505.0 Z" />
	<path style="fill:#d2d2d2;" d="M 195.0,505.0 L 196.0,506.0 195.0,505.0 Z" />
	<path style="fill:#cacaca;" d="M 314.0,505.0 L 315.0,506.0 314.0,505.0 Z" />
	<path style="fill:#6b6b6b;" d="M 315.0,505.0 L 316.0,506.0 315.0,505.0 Z" />
	<path style="fill:#464646;" d="M 491.0,505.0 L 492.0,506.0 491.0,505.0 Z" />
	<path style="fill:#969696;" d="M 492.0,505.0 L 493.0,506.0 492.0,505.0 M 22.6667,506.333 C 22.2222,506.778 23.2778,506.722 23.3333,506.667 23.7778,506.222 22.7222,506.278 22.6667,506.333 Z" />
	<path style="fill:#555555;" d="M 24.0,506.0 L 24.0,507.0 190.0,507.0 C 177.117,501.594 154.038,506.0 140.0,506.0 L 24.0,506.0 Z" />
	<path style="fill:#b8b8b8;" d="M 190.667,506.333 C 190.222,506.778 191.278,506.722 191.333,506.667 191.778,506.222 190.722,506.278 190.667,506.333 Z" />
	<path style="fill:#898989;" d="M 318.667,506.333 C 318.222,506.778 319.278,506.722 319.333,506.667 319.778,506.222 318.722,506.278 318.667,506.333 Z" />
	<path style="fill:#555555;" d="M 320.0,506.0 L 320.0,507.0 486.0,507.0 C 473.117,501.594 450.038,506.0 436.0,506.0 L 320.0,506.0 Z" />
	<path style="fill:#7a7a7a;" d="M 486.0,506.0 L 486.0,507.0 489.0,507.0 C 487.752,506.315 487.452,506.251 486.0,506.0 Z" />
	<path style="fill:#cacaca;" d="M 489.0,506.0 L 490.0,507.0 489.0,506.0 Z" />
</g>
</svg>