<svg viewBox="150 070 500 400" xmlns="http://www.w3.org/2000/svg">
 <path fill="#FFFF" d="m210 70v420c0 9.2812-3.6875 18.184-10.25 24.75-6.5664 6.5625-15.469 10.25-24.75 10.25h-35c-9.2812 0-18.184-3.6875-24.75-10.25-6.5625-6.5664-10.25-15.469-10.25-24.75v-420c0-9.2812 3.6875-18.184 10.25-24.75 6.5664-6.5625 15.469-10.25 24.75-10.25h35c9.2812 0 18.184 3.6875 24.75 10.25 6.5625 6.5664 10.25 15.469 10.25 24.75zm385 399.18-108.68-405.65c-2.418-8.9531-8.293-16.582-16.332-21.207-8.0391-4.6289-17.586-5.875-26.543-3.4648l-33.773 9.1016v-0.003906c-8.957 2.418-16.582 8.293-21.211 16.332-4.625 8.0391-5.8711 17.586-3.4648 26.543l108.68 405.65v0.003906c2 7.4258 6.3906 13.992 12.496 18.672 6.1055 4.6836 13.586 7.2227 21.277 7.2266 3.0742 0.011719 6.1367-0.39844 9.1016-1.2266l33.773-9.1016v0.003906c8.957-2.418 16.582-8.293 21.211-16.332 4.625-8.0391 5.8711-17.586 3.4648-26.543zm-280-434.18h-35c-9.2812 0-18.184 3.6875-24.75 10.25-6.5625 6.5664-10.25 15.469-10.25 24.75v420c0 9.2812 3.6875 18.184 10.25 24.75 6.5664 6.5625 15.469 10.25 24.75 10.25h35c9.2812 0 18.184-3.6875 24.75-10.25 6.5625-6.5664 10.25-15.469 10.25-24.75v-420c0-9.2812-3.6875-18.184-10.25-24.75-6.5664-6.5625-15.469-10.25-24.75-10.25z"/>
</svg>
