<!-- <?xml version="1.0" encoding="UTF-8"?> -->
<svg viewBox="150 070 500 400" xmlns="http://www.w3.org/2000/svg">
 <path fill="#FFFF" d="m553.23 450.1-79.332-79.102h-0.003906c25.598-32.609 39.488-72.879 39.434-114.33 0-49.508-19.664-96.988-54.672-132-35.008-35.004-82.488-54.672-131.99-54.672-49.508 0-96.988 19.668-132 54.672-35.004 35.008-54.672 82.488-54.672 132 0 49.504 19.668 96.984 54.672 131.99 35.008 35.008 82.488 54.672 132 54.672 41.453 0.054688 81.723-13.836 114.33-39.434l79.102 79.332v0.003906c4.3789 4.418 10.344 6.9023 16.566 6.9023 6.2188 0 12.184-2.4844 16.566-6.9023 4.418-4.3828 6.9023-10.348 6.9023-16.566 0-6.2227-2.4844-12.188-6.9023-16.566zm-366.57-193.43c0-37.133 14.75-72.742 41.004-98.996s61.863-41.004 98.996-41.004c37.129 0 72.738 14.75 98.992 41.004 26.258 26.254 41.008 61.863 41.008 98.996 0 37.129-14.75 72.738-41.008 98.992-26.254 26.258-61.863 41.008-98.992 41.008-37.133 0-72.742-14.75-98.996-41.008-26.254-26.254-41.004-61.863-41.004-98.992z"/>
</svg>
